<svg width="1538" height="388" viewBox="0 0 1538 388" fill="none" xmlns="http://www.w3.org/2000/svg">
<g filter="url(#filter0_d_415_2420)">
<rect width="414" height="159" rx="45" fill="#F3F3F3"/>
<rect x="0.5" y="0.5" width="413" height="158" rx="44.5" stroke="#191A23"/>
<g clip-path="url(#clip0_415_2420)">
<path d="M79.32 100.84C74.44 100.84 70.54 99.46 67.62 96.7C64.74 93.9 63.3 89.7 63.3 84.1V73.9C63.3 68.42 64.74 64.26 67.62 61.42C70.54 58.58 74.44 57.16 79.32 57.16C84.24 57.16 88.14 58.58 91.02 61.42C93.94 64.26 95.4 68.42 95.4 73.9V84.1C95.4 89.7 93.94 93.9 91.02 96.7C88.14 99.46 84.24 100.84 79.32 100.84ZM79.32 95.2C82.64 95.2 85.1 94.26 86.7 92.38C88.3 90.46 89.1 87.78 89.1 84.34V73.54C89.1 70.1 88.24 67.46 86.52 65.62C84.8 63.74 82.4 62.8 79.32 62.8C76.2 62.8 73.8 63.76 72.12 65.68C70.44 67.56 69.6 70.18 69.6 73.54V84.34C69.6 87.86 70.4 90.56 72 92.44C73.64 94.28 76.08 95.2 79.32 95.2ZM114.092 100V62.44H113.132L106.232 76.6H99.5719L108.872 58H120.392V100H114.092Z" fill="black"/>
<path d="M152.19 89.5V68.5H158.28L162.87 87.34H163.35L167.94 68.5H174.03V89.5H170.88V70.78H170.4L165.84 89.5H160.38L155.82 70.78H155.34V89.5H152.19ZM183.091 89.92C182.031 89.92 181.081 89.74 180.241 89.38C179.421 89.02 178.761 88.49 178.261 87.79C177.781 87.09 177.541 86.24 177.541 85.24C177.541 84.22 177.781 83.38 178.261 82.72C178.761 82.04 179.431 81.53 180.271 81.19C181.131 80.85 182.101 80.68 183.181 80.68H187.681V79.72C187.681 78.86 187.421 78.17 186.901 77.65C186.381 77.13 185.581 76.87 184.501 76.87C183.441 76.87 182.631 77.12 182.071 77.62C181.511 78.12 181.141 78.77 180.961 79.57L178.081 78.64C178.321 77.84 178.701 77.12 179.221 76.48C179.761 75.82 180.471 75.29 181.351 74.89C182.231 74.49 183.291 74.29 184.531 74.29C186.451 74.29 187.961 74.78 189.061 75.76C190.161 76.74 190.711 78.13 190.711 79.93V86.02C190.711 86.62 190.991 86.92 191.551 86.92H192.811V89.5H190.501C189.801 89.5 189.231 89.32 188.791 88.96C188.351 88.6 188.131 88.11 188.131 87.49V87.4H187.681C187.521 87.7 187.281 88.05 186.961 88.45C186.641 88.85 186.171 89.2 185.551 89.5C184.931 89.78 184.111 89.92 183.091 89.92ZM183.541 87.37C184.781 87.37 185.781 87.02 186.541 86.32C187.301 85.6 187.681 84.62 187.681 83.38V83.08H183.361C182.541 83.08 181.881 83.26 181.381 83.62C180.881 83.96 180.631 84.47 180.631 85.15C180.631 85.83 180.891 86.37 181.411 86.77C181.931 87.17 182.641 87.37 183.541 87.37ZM195.815 95.5V74.71H198.845V76.84H199.325C199.705 76.18 200.275 75.59 201.035 75.07C201.815 74.55 202.925 74.29 204.365 74.29C205.605 74.29 206.735 74.59 207.755 75.19C208.795 75.79 209.625 76.66 210.245 77.8C210.885 78.92 211.205 80.28 211.205 81.88V82.33C211.205 83.93 210.895 85.3 210.275 86.44C209.655 87.56 208.825 88.42 207.785 89.02C206.745 89.62 205.605 89.92 204.365 89.92C203.405 89.92 202.595 89.8 201.935 89.56C201.275 89.32 200.745 89.02 200.345 88.66C199.945 88.28 199.625 87.89 199.385 87.49H198.905V95.5H195.815ZM203.465 87.22C204.825 87.22 205.935 86.79 206.795 85.93C207.655 85.07 208.085 83.84 208.085 82.24V81.97C208.085 80.39 207.645 79.17 206.765 78.31C205.905 77.45 204.805 77.02 203.465 77.02C202.145 77.02 201.045 77.45 200.165 78.31C199.305 79.17 198.875 80.39 198.875 81.97V82.24C198.875 83.84 199.305 85.07 200.165 85.93C201.045 86.79 202.145 87.22 203.465 87.22ZM228.23 89.5C227.33 89.5 226.61 89.23 226.07 88.69C225.55 88.15 225.29 87.43 225.29 86.53V77.32H221.21V74.71H225.29V69.82H228.38V74.71H232.79V77.32H228.38V85.99C228.38 86.59 228.66 86.89 229.22 86.89H232.31V89.5H228.23ZM236.421 89.5V68.5H239.511V76.81H239.991C240.191 76.43 240.471 76.06 240.831 75.7C241.211 75.34 241.701 75.05 242.301 74.83C242.921 74.59 243.701 74.47 244.641 74.47C245.761 74.47 246.751 74.72 247.611 75.22C248.491 75.72 249.181 76.43 249.681 77.35C250.181 78.25 250.431 79.34 250.431 80.62V89.5H247.341V80.86C247.341 79.58 247.021 78.64 246.381 78.04C245.741 77.42 244.861 77.11 243.741 77.11C242.461 77.11 241.431 77.53 240.651 78.37C239.891 79.21 239.511 80.43 239.511 82.03V89.5H236.421ZM261.658 89.92C260.158 89.92 258.848 89.61 257.728 88.99C256.608 88.35 255.728 87.46 255.088 86.32C254.468 85.16 254.158 83.82 254.158 82.3V81.94C254.158 80.4 254.468 79.06 255.088 77.92C255.708 76.76 256.568 75.87 257.668 75.25C258.788 74.61 260.078 74.29 261.538 74.29C262.958 74.29 264.198 74.61 265.258 75.25C266.338 75.87 267.178 76.74 267.778 77.86C268.378 78.98 268.678 80.29 268.678 81.79V82.96H257.308C257.348 84.26 257.778 85.3 258.598 86.08C259.438 86.84 260.478 87.22 261.718 87.22C262.878 87.22 263.748 86.96 264.328 86.44C264.928 85.92 265.388 85.32 265.708 84.64L268.258 85.96C267.978 86.52 267.568 87.11 267.028 87.73C266.508 88.35 265.818 88.87 264.958 89.29C264.098 89.71 262.998 89.92 261.658 89.92ZM257.338 80.59H265.528C265.448 79.47 265.048 78.6 264.328 77.98C263.608 77.34 262.668 77.02 261.508 77.02C260.348 77.02 259.398 77.34 258.658 77.98C257.938 78.6 257.498 79.47 257.338 80.59ZM279.954 89.5V68.5H286.044L290.634 87.34H291.114L295.704 68.5H301.794V89.5H298.644V70.78H298.164L293.604 89.5H288.144L283.584 70.78H283.104V89.5H279.954ZM313.044 89.92C311.544 89.92 310.234 89.61 309.114 88.99C307.994 88.35 307.114 87.46 306.474 86.32C305.854 85.16 305.544 83.82 305.544 82.3V81.94C305.544 80.4 305.854 79.06 306.474 77.92C307.094 76.76 307.954 75.87 309.054 75.25C310.174 74.61 311.464 74.29 312.924 74.29C314.344 74.29 315.584 74.61 316.644 75.25C317.724 75.87 318.564 76.74 319.164 77.86C319.764 78.98 320.064 80.29 320.064 81.79V82.96H308.694C308.734 84.26 309.164 85.3 309.984 86.08C310.824 86.84 311.864 87.22 313.104 87.22C314.264 87.22 315.134 86.96 315.714 86.44C316.314 85.92 316.774 85.32 317.094 84.64L319.644 85.96C319.364 86.52 318.954 87.11 318.414 87.73C317.894 88.35 317.204 88.87 316.344 89.29C315.484 89.71 314.384 89.92 313.044 89.92ZM308.724 80.59H316.914C316.834 79.47 316.434 78.6 315.714 77.98C314.994 77.34 314.054 77.02 312.894 77.02C311.734 77.02 310.784 77.34 310.044 77.98C309.324 78.6 308.884 79.47 308.724 80.59ZM329.844 89.92C327.964 89.92 326.404 89.5 325.164 88.66C323.924 87.82 323.164 86.55 322.884 84.85L325.764 84.16C325.924 84.98 326.194 85.63 326.574 86.11C326.954 86.59 327.424 86.93 327.984 87.13C328.564 87.33 329.184 87.43 329.844 87.43C330.824 87.43 331.574 87.24 332.094 86.86C332.634 86.48 332.904 85.99 332.904 85.39C332.904 84.79 332.654 84.35 332.154 84.07C331.654 83.79 330.914 83.56 329.934 83.38L328.914 83.2C327.914 83.02 327.004 82.76 326.184 82.42C325.364 82.08 324.714 81.61 324.234 81.01C323.754 80.41 323.514 79.64 323.514 78.7C323.514 77.3 324.034 76.22 325.074 75.46C326.114 74.68 327.494 74.29 329.214 74.29C330.874 74.29 332.234 74.67 333.294 75.43C334.374 76.17 335.074 77.18 335.394 78.46L332.514 79.27C332.334 78.37 331.954 77.74 331.374 77.38C330.794 77 330.074 76.81 329.214 76.81C328.374 76.81 327.714 76.97 327.234 77.29C326.754 77.59 326.514 78.02 326.514 78.58C326.514 79.18 326.744 79.62 327.204 79.9C327.684 80.18 328.324 80.39 329.124 80.53L330.174 80.71C331.234 80.89 332.204 81.14 333.084 81.46C333.964 81.78 334.654 82.24 335.154 82.84C335.674 83.44 335.934 84.24 335.934 85.24C335.934 86.72 335.384 87.87 334.284 88.69C333.184 89.51 331.704 89.92 329.844 89.92ZM345.606 89.92C343.726 89.92 342.166 89.5 340.926 88.66C339.686 87.82 338.926 86.55 338.646 84.85L341.526 84.16C341.686 84.98 341.956 85.63 342.336 86.11C342.716 86.59 343.186 86.93 343.746 87.13C344.326 87.33 344.946 87.43 345.606 87.43C346.586 87.43 347.336 87.24 347.856 86.86C348.396 86.48 348.666 85.99 348.666 85.39C348.666 84.79 348.416 84.35 347.916 84.07C347.416 83.79 346.676 83.56 345.696 83.38L344.676 83.2C343.676 83.02 342.766 82.76 341.946 82.42C341.126 82.08 340.476 81.61 339.996 81.01C339.516 80.41 339.276 79.64 339.276 78.7C339.276 77.3 339.796 76.22 340.836 75.46C341.876 74.68 343.256 74.29 344.976 74.29C346.636 74.29 347.996 74.67 349.056 75.43C350.136 76.17 350.836 77.18 351.156 78.46L348.276 79.27C348.096 78.37 347.716 77.74 347.136 77.38C346.556 77 345.836 76.81 344.976 76.81C344.136 76.81 343.476 76.97 342.996 77.29C342.516 77.59 342.276 78.02 342.276 78.58C342.276 79.18 342.506 79.62 342.966 79.9C343.446 80.18 344.086 80.39 344.886 80.53L345.936 80.71C346.996 80.89 347.966 81.14 348.846 81.46C349.726 81.78 350.416 82.24 350.916 82.84C351.436 83.44 351.696 84.24 351.696 85.24C351.696 86.72 351.146 87.87 350.046 88.69C348.946 89.51 347.466 89.92 345.606 89.92Z" fill="black"/>
</g>
</g>
<g filter="url(#filter1_d_415_2420)">
<rect x="444" width="567" height="159" rx="45" fill="#F3F3F3"/>
<rect x="444.5" y="0.5" width="566" height="158" rx="44.5" stroke="#191A23"/>
<g clip-path="url(#clip1_415_2420)">
<path d="M523.32 100.84C518.44 100.84 514.54 99.46 511.62 96.7C508.74 93.9 507.3 89.7 507.3 84.1V73.9C507.3 68.42 508.74 64.26 511.62 61.42C514.54 58.58 518.44 57.16 523.32 57.16C528.24 57.16 532.14 58.58 535.02 61.42C537.94 64.26 539.4 68.42 539.4 73.9V84.1C539.4 89.7 537.94 93.9 535.02 96.7C532.14 99.46 528.24 100.84 523.32 100.84ZM523.32 95.2C526.64 95.2 529.1 94.26 530.7 92.38C532.3 90.46 533.1 87.78 533.1 84.34V73.54C533.1 70.1 532.24 67.46 530.52 65.62C528.8 63.74 526.4 62.8 523.32 62.8C520.2 62.8 517.8 63.76 516.12 65.68C514.44 67.56 513.6 70.18 513.6 73.54V84.34C513.6 87.86 514.4 90.56 516 92.44C517.64 94.28 520.08 95.2 523.32 95.2ZM545.552 100V95.26C545.552 92.34 546.052 89.94 547.052 88.06C548.052 86.18 549.472 84.66 551.312 83.5C553.192 82.3 555.452 81.3 558.092 80.5L561.752 79.36C563.392 78.84 564.792 78.2 565.952 77.44C567.152 76.68 568.072 75.74 568.712 74.62C569.352 73.46 569.672 72.12 569.672 70.6V70.36C569.672 68 568.872 66.16 567.272 64.84C565.672 63.48 563.572 62.8 560.972 62.8C558.292 62.8 556.112 63.52 554.432 64.96C552.792 66.4 551.972 68.52 551.972 71.32V72.28H545.732V71.38C545.732 68.34 546.392 65.78 547.712 63.7C549.032 61.58 550.852 59.96 553.172 58.84C555.492 57.72 558.092 57.16 560.972 57.16C563.852 57.16 566.412 57.7 568.652 58.78C570.932 59.86 572.712 61.38 573.992 63.34C575.312 65.3 575.972 67.6 575.972 70.24V70.78C575.972 73.5 575.432 75.76 574.352 77.56C573.272 79.36 571.772 80.84 569.852 82C567.972 83.16 565.792 84.14 563.312 84.94L559.772 86.02C557.892 86.58 556.372 87.2 555.212 87.88C554.092 88.52 553.252 89.3 552.692 90.22C552.172 91.14 551.912 92.32 551.912 93.76V94.36H575.612V100H545.552Z" fill="black"/>
<path d="M606.19 89.5V68.5H609.43V89.5H606.19ZM620.017 89.92C618.797 89.92 617.667 89.62 616.627 89.02C615.587 88.42 614.747 87.56 614.107 86.44C613.487 85.3 613.177 83.93 613.177 82.33V81.88C613.177 80.3 613.487 78.94 614.107 77.8C614.727 76.66 615.557 75.79 616.597 75.19C617.637 74.59 618.777 74.29 620.017 74.29C620.977 74.29 621.777 74.41 622.417 74.65C623.077 74.89 623.617 75.2 624.037 75.58C624.457 75.94 624.777 76.32 624.997 76.72H625.477V68.5H628.567V89.5H625.537V87.4H625.057C624.677 88.04 624.097 88.62 623.317 89.14C622.557 89.66 621.457 89.92 620.017 89.92ZM620.887 87.22C622.227 87.22 623.327 86.79 624.187 85.93C625.067 85.07 625.507 83.84 625.507 82.24V81.97C625.507 80.39 625.077 79.17 624.217 78.31C623.357 77.45 622.247 77.02 620.887 77.02C619.567 77.02 618.467 77.45 617.587 78.31C616.727 79.17 616.297 80.39 616.297 81.97V82.24C616.297 83.84 616.727 85.07 617.587 85.93C618.467 86.79 619.567 87.22 620.887 87.22ZM639.896 89.92C638.396 89.92 637.086 89.61 635.966 88.99C634.846 88.35 633.966 87.46 633.326 86.32C632.706 85.16 632.396 83.82 632.396 82.3V81.94C632.396 80.4 632.706 79.06 633.326 77.92C633.946 76.76 634.806 75.87 635.906 75.25C637.026 74.61 638.316 74.29 639.776 74.29C641.196 74.29 642.436 74.61 643.496 75.25C644.576 75.87 645.416 76.74 646.016 77.86C646.616 78.98 646.916 80.29 646.916 81.79V82.96H635.546C635.586 84.26 636.016 85.3 636.836 86.08C637.676 86.84 638.716 87.22 639.956 87.22C641.116 87.22 641.986 86.96 642.566 86.44C643.166 85.92 643.626 85.32 643.946 84.64L646.496 85.96C646.216 86.52 645.806 87.11 645.266 87.73C644.746 88.35 644.056 88.87 643.196 89.29C642.336 89.71 641.236 89.92 639.896 89.92ZM635.576 80.59H643.766C643.686 79.47 643.286 78.6 642.566 77.98C641.846 77.34 640.906 77.02 639.746 77.02C638.586 77.02 637.636 77.34 636.896 77.98C636.176 78.6 635.736 79.47 635.576 80.59ZM650.635 89.5V74.71H653.665V76.93H654.145C654.425 76.33 654.925 75.77 655.645 75.25C656.365 74.73 657.435 74.47 658.855 74.47C659.975 74.47 660.965 74.72 661.825 75.22C662.705 75.72 663.395 76.43 663.895 77.35C664.395 78.25 664.645 79.34 664.645 80.62V89.5H661.555V80.86C661.555 79.58 661.235 78.64 660.595 78.04C659.955 77.42 659.075 77.11 657.955 77.11C656.675 77.11 655.645 77.53 654.865 78.37C654.105 79.21 653.725 80.43 653.725 82.03V89.5H650.635ZM674.232 89.5C673.332 89.5 672.612 89.23 672.072 88.69C671.552 88.15 671.292 87.43 671.292 86.53V77.32H667.212V74.71H671.292V69.82H674.382V74.71H678.792V77.32H674.382V85.99C674.382 86.59 674.662 86.89 675.222 86.89H678.312V89.5H674.232ZM682.423 89.5V74.71H685.513V89.5H682.423ZM683.983 72.7C683.383 72.7 682.873 72.51 682.453 72.13C682.053 71.73 681.853 71.22 681.853 70.6C681.853 69.98 682.053 69.48 682.453 69.1C682.873 68.7 683.383 68.5 683.983 68.5C684.603 68.5 685.113 68.7 685.513 69.1C685.913 69.48 686.113 69.98 686.113 70.6C686.113 71.22 685.913 71.73 685.513 72.13C685.113 72.51 684.603 72.7 683.983 72.7ZM692.768 89.5V77.32H688.628V74.71H692.768V71.47C692.768 70.57 693.038 69.85 693.578 69.31C694.118 68.77 694.838 68.5 695.738 68.5H699.548V71.11H696.728C696.148 71.11 695.858 71.41 695.858 72.01V74.71H700.118V77.32H695.858V89.5H692.768ZM704.992 95.5V92.8H713.242C713.802 92.8 714.082 92.5 714.082 91.9V87.34H713.602C713.422 87.74 713.142 88.13 712.762 88.51C712.402 88.87 711.912 89.17 711.292 89.41C710.672 89.65 709.892 89.77 708.952 89.77C707.832 89.77 706.832 89.52 705.952 89.02C705.072 88.52 704.382 87.81 703.882 86.89C703.382 85.97 703.132 84.88 703.132 83.62V74.71H706.222V83.38C706.222 84.66 706.542 85.61 707.182 86.23C707.822 86.83 708.712 87.13 709.852 87.13C711.112 87.13 712.122 86.71 712.882 85.87C713.662 85.03 714.052 83.81 714.052 82.21V74.71H717.142V92.53C717.142 93.43 716.872 94.15 716.332 94.69C715.812 95.23 715.092 95.5 714.172 95.5H704.992ZM735.476 89.92C734.256 89.92 733.126 89.62 732.086 89.02C731.046 88.42 730.206 87.56 729.566 86.44C728.946 85.3 728.636 83.93 728.636 82.33V81.88C728.636 80.3 728.946 78.94 729.566 77.8C730.186 76.66 731.016 75.79 732.056 75.19C733.096 74.59 734.236 74.29 735.476 74.29C736.436 74.29 737.236 74.41 737.876 74.65C738.536 74.89 739.076 75.2 739.496 75.58C739.916 75.94 740.236 76.32 740.456 76.72H740.936V68.5H744.026V89.5H740.996V87.4H740.516C740.136 88.04 739.556 88.62 738.776 89.14C738.016 89.66 736.916 89.92 735.476 89.92ZM736.346 87.22C737.686 87.22 738.786 86.79 739.646 85.93C740.526 85.07 740.966 83.84 740.966 82.24V81.97C740.966 80.39 740.536 79.17 739.676 78.31C738.816 77.45 737.706 77.02 736.346 77.02C735.026 77.02 733.926 77.45 733.046 78.31C732.186 79.17 731.756 80.39 731.756 81.97V82.24C731.756 83.84 732.186 85.07 733.046 85.93C733.926 86.79 735.026 87.22 736.346 87.22ZM755.355 89.92C753.855 89.92 752.545 89.61 751.425 88.99C750.305 88.35 749.425 87.46 748.785 86.32C748.165 85.16 747.855 83.82 747.855 82.3V81.94C747.855 80.4 748.165 79.06 748.785 77.92C749.405 76.76 750.265 75.87 751.365 75.25C752.485 74.61 753.775 74.29 755.235 74.29C756.655 74.29 757.895 74.61 758.955 75.25C760.035 75.87 760.875 76.74 761.475 77.86C762.075 78.98 762.375 80.29 762.375 81.79V82.96H751.005C751.045 84.26 751.475 85.3 752.295 86.08C753.135 86.84 754.175 87.22 755.415 87.22C756.575 87.22 757.445 86.96 758.025 86.44C758.625 85.92 759.085 85.32 759.405 84.64L761.955 85.96C761.675 86.52 761.265 87.11 760.725 87.73C760.205 88.35 759.515 88.87 758.655 89.29C757.795 89.71 756.695 89.92 755.355 89.92ZM751.035 80.59H759.225C759.145 79.47 758.745 78.6 758.025 77.98C757.305 77.34 756.365 77.02 755.205 77.02C754.045 77.02 753.095 77.34 752.355 77.98C751.635 78.6 751.195 79.47 751.035 80.59ZM772.964 89.92C771.544 89.92 770.254 89.62 769.094 89.02C767.954 88.42 767.044 87.55 766.364 86.41C765.704 85.27 765.374 83.9 765.374 82.3V81.91C765.374 80.31 765.704 78.95 766.364 77.83C767.044 76.69 767.954 75.82 769.094 75.22C770.254 74.6 771.544 74.29 772.964 74.29C774.384 74.29 775.594 74.55 776.594 75.07C777.594 75.59 778.394 76.28 778.994 77.14C779.614 78 780.014 78.95 780.194 79.99L777.194 80.62C777.094 79.96 776.884 79.36 776.564 78.82C776.244 78.28 775.794 77.85 775.214 77.53C774.634 77.21 773.904 77.05 773.024 77.05C772.164 77.05 771.384 77.25 770.684 77.65C770.004 78.03 769.464 78.59 769.064 79.33C768.664 80.05 768.464 80.93 768.464 81.97V82.24C768.464 83.28 768.664 84.17 769.064 84.91C769.464 85.65 770.004 86.21 770.684 86.59C771.384 86.97 772.164 87.16 773.024 87.16C774.324 87.16 775.314 86.83 775.994 86.17C776.674 85.49 777.104 84.63 777.284 83.59L780.284 84.28C780.044 85.3 779.614 86.24 778.994 87.1C778.394 87.96 777.594 88.65 776.594 89.17C775.594 89.67 774.384 89.92 772.964 89.92ZM783.848 89.5V74.71H786.938V89.5H783.848ZM785.408 72.7C784.808 72.7 784.298 72.51 783.878 72.13C783.478 71.73 783.278 71.22 783.278 70.6C783.278 69.98 783.478 69.48 783.878 69.1C784.298 68.7 784.808 68.5 785.408 68.5C786.028 68.5 786.538 68.7 786.938 69.1C787.338 69.48 787.538 69.98 787.538 70.6C787.538 71.22 787.338 71.73 786.938 72.13C786.538 72.51 786.028 72.7 785.408 72.7ZM797.584 89.92C795.704 89.92 794.144 89.5 792.904 88.66C791.664 87.82 790.904 86.55 790.624 84.85L793.504 84.16C793.664 84.98 793.934 85.63 794.314 86.11C794.694 86.59 795.164 86.93 795.724 87.13C796.304 87.33 796.924 87.43 797.584 87.43C798.564 87.43 799.314 87.24 799.834 86.86C800.374 86.48 800.644 85.99 800.644 85.39C800.644 84.79 800.394 84.35 799.894 84.07C799.394 83.79 798.654 83.56 797.674 83.38L796.654 83.2C795.654 83.02 794.744 82.76 793.924 82.42C793.104 82.08 792.454 81.61 791.974 81.01C791.494 80.41 791.254 79.64 791.254 78.7C791.254 77.3 791.774 76.22 792.814 75.46C793.854 74.68 795.234 74.29 796.954 74.29C798.614 74.29 799.974 74.67 801.034 75.43C802.114 76.17 802.814 77.18 803.134 78.46L800.254 79.27C800.074 78.37 799.694 77.74 799.114 77.38C798.534 77 797.814 76.81 796.954 76.81C796.114 76.81 795.454 76.97 794.974 77.29C794.494 77.59 794.254 78.02 794.254 78.58C794.254 79.18 794.484 79.62 794.944 79.9C795.424 80.18 796.064 80.39 796.864 80.53L797.914 80.71C798.974 80.89 799.944 81.14 800.824 81.46C801.704 81.78 802.394 82.24 802.894 82.84C803.414 83.44 803.674 84.24 803.674 85.24C803.674 86.72 803.124 87.87 802.024 88.69C800.924 89.51 799.444 89.92 797.584 89.92ZM807.286 89.5V74.71H810.376V89.5H807.286ZM808.846 72.7C808.246 72.7 807.736 72.51 807.316 72.13C806.916 71.73 806.716 71.22 806.716 70.6C806.716 69.98 806.916 69.48 807.316 69.1C807.736 68.7 808.246 68.5 808.846 68.5C809.466 68.5 809.976 68.7 810.376 69.1C810.776 69.48 810.976 69.98 810.976 70.6C810.976 71.22 810.776 71.73 810.376 72.13C809.976 72.51 809.466 72.7 808.846 72.7ZM821.892 89.92C820.412 89.92 819.092 89.62 817.932 89.02C816.792 88.4 815.892 87.52 815.232 86.38C814.572 85.24 814.242 83.89 814.242 82.33V81.88C814.242 80.32 814.572 78.98 815.232 77.86C815.892 76.72 816.792 75.84 817.932 75.22C819.092 74.6 820.412 74.29 821.892 74.29C823.372 74.29 824.692 74.6 825.852 75.22C827.012 75.84 827.922 76.72 828.582 77.86C829.242 78.98 829.572 80.32 829.572 81.88V82.33C829.572 83.89 829.242 85.24 828.582 86.38C827.922 87.52 827.012 88.4 825.852 89.02C824.692 89.62 823.372 89.92 821.892 89.92ZM821.892 87.16C823.252 87.16 824.352 86.73 825.192 85.87C826.052 84.99 826.482 83.78 826.482 82.24V81.97C826.482 80.43 826.062 79.23 825.222 78.37C824.382 77.49 823.272 77.05 821.892 77.05C820.552 77.05 819.452 77.49 818.592 78.37C817.752 79.23 817.332 80.43 817.332 81.97V82.24C817.332 83.78 817.752 84.99 818.592 85.87C819.452 86.73 820.552 87.16 821.892 87.16ZM833.419 89.5V74.71H836.449V76.93H836.929C837.209 76.33 837.709 75.77 838.429 75.25C839.149 74.73 840.219 74.47 841.639 74.47C842.759 74.47 843.749 74.72 844.609 75.22C845.489 75.72 846.179 76.43 846.679 77.35C847.179 78.25 847.429 79.34 847.429 80.62V89.5H844.339V80.86C844.339 79.58 844.019 78.64 843.379 78.04C842.739 77.42 841.859 77.11 840.739 77.11C839.459 77.11 838.429 77.53 837.649 78.37C836.889 79.21 836.509 80.43 836.509 82.03V89.5H833.419ZM859.522 95.5V74.71H862.552V76.84H863.032C863.412 76.18 863.982 75.59 864.742 75.07C865.522 74.55 866.632 74.29 868.072 74.29C869.312 74.29 870.442 74.59 871.462 75.19C872.502 75.79 873.332 76.66 873.952 77.8C874.592 78.92 874.912 80.28 874.912 81.88V82.33C874.912 83.93 874.602 85.3 873.982 86.44C873.362 87.56 872.532 88.42 871.492 89.02C870.452 89.62 869.312 89.92 868.072 89.92C867.112 89.92 866.302 89.8 865.642 89.56C864.982 89.32 864.452 89.02 864.052 88.66C863.652 88.28 863.332 87.89 863.092 87.49H862.612V95.5H859.522ZM867.172 87.22C868.532 87.22 869.642 86.79 870.502 85.93C871.362 85.07 871.792 83.84 871.792 82.24V81.97C871.792 80.39 871.352 79.17 870.472 78.31C869.612 77.45 868.512 77.02 867.172 77.02C865.852 77.02 864.752 77.45 863.872 78.31C863.012 79.17 862.582 80.39 862.582 81.97V82.24C862.582 83.84 863.012 85.07 863.872 85.93C864.752 86.79 865.852 87.22 867.172 87.22ZM885.671 89.92C884.191 89.92 882.871 89.62 881.711 89.02C880.571 88.4 879.671 87.52 879.011 86.38C878.351 85.24 878.021 83.89 878.021 82.33V81.88C878.021 80.32 878.351 78.98 879.011 77.86C879.671 76.72 880.571 75.84 881.711 75.22C882.871 74.6 884.191 74.29 885.671 74.29C887.151 74.29 888.471 74.6 889.631 75.22C890.791 75.84 891.701 76.72 892.361 77.86C893.021 78.98 893.351 80.32 893.351 81.88V82.33C893.351 83.89 893.021 85.24 892.361 86.38C891.701 87.52 890.791 88.4 889.631 89.02C888.471 89.62 887.151 89.92 885.671 89.92ZM885.671 87.16C887.031 87.16 888.131 86.73 888.971 85.87C889.831 84.99 890.261 83.78 890.261 82.24V81.97C890.261 80.43 889.841 79.23 889.001 78.37C888.161 77.49 887.051 77.05 885.671 77.05C884.331 77.05 883.231 77.49 882.371 78.37C881.531 79.23 881.111 80.43 881.111 81.97V82.24C881.111 83.78 881.531 84.99 882.371 85.87C883.231 86.73 884.331 87.16 885.671 87.16ZM897.198 89.5V74.71H900.288V89.5H897.198ZM898.758 72.7C898.158 72.7 897.648 72.51 897.228 72.13C896.828 71.73 896.628 71.22 896.628 70.6C896.628 69.98 896.828 69.48 897.228 69.1C897.648 68.7 898.158 68.5 898.758 68.5C899.378 68.5 899.888 68.7 900.288 69.1C900.688 69.48 900.888 69.98 900.888 70.6C900.888 71.22 900.688 71.73 900.288 72.13C899.888 72.51 899.378 72.7 898.758 72.7ZM904.874 89.5V74.71H907.904V76.93H908.384C908.664 76.33 909.164 75.77 909.884 75.25C910.604 74.73 911.674 74.47 913.094 74.47C914.214 74.47 915.204 74.72 916.064 75.22C916.944 75.72 917.634 76.43 918.134 77.35C918.634 78.25 918.884 79.34 918.884 80.62V89.5H915.794V80.86C915.794 79.58 915.474 78.64 914.834 78.04C914.194 77.42 913.314 77.11 912.194 77.11C910.914 77.11 909.884 77.53 909.104 78.37C908.344 79.21 907.964 80.43 907.964 82.03V89.5H904.874ZM928.471 89.5C927.571 89.5 926.851 89.23 926.311 88.69C925.791 88.15 925.531 87.43 925.531 86.53V77.32H921.451V74.71H925.531V69.82H928.621V74.71H933.031V77.32H928.621V85.99C928.621 86.59 928.901 86.89 929.461 86.89H932.551V89.5H928.471ZM942.721 89.92C940.841 89.92 939.281 89.5 938.041 88.66C936.801 87.82 936.041 86.55 935.761 84.85L938.641 84.16C938.801 84.98 939.071 85.63 939.451 86.11C939.831 86.59 940.301 86.93 940.861 87.13C941.441 87.33 942.061 87.43 942.721 87.43C943.701 87.43 944.451 87.24 944.971 86.86C945.511 86.48 945.781 85.99 945.781 85.39C945.781 84.79 945.531 84.35 945.031 84.07C944.531 83.79 943.791 83.56 942.811 83.38L941.791 83.2C940.791 83.02 939.881 82.76 939.061 82.42C938.241 82.08 937.591 81.61 937.111 81.01C936.631 80.41 936.391 79.64 936.391 78.7C936.391 77.3 936.911 76.22 937.951 75.46C938.991 74.68 940.371 74.29 942.091 74.29C943.751 74.29 945.111 74.67 946.171 75.43C947.251 76.17 947.951 77.18 948.271 78.46L945.391 79.27C945.211 78.37 944.831 77.74 944.251 77.38C943.671 77 942.951 76.81 942.091 76.81C941.251 76.81 940.591 76.97 940.111 77.29C939.631 77.59 939.391 78.02 939.391 78.58C939.391 79.18 939.621 79.62 940.081 79.9C940.561 80.18 941.201 80.39 942.001 80.53L943.051 80.71C944.111 80.89 945.081 81.14 945.961 81.46C946.841 81.78 947.531 82.24 948.031 82.84C948.551 83.44 948.811 84.24 948.811 85.24C948.811 86.72 948.261 87.87 947.161 88.69C946.061 89.51 944.581 89.92 942.721 89.92Z" fill="black"/>
</g>
</g>
<g filter="url(#filter2_d_415_2420)">
<rect x="1074" width="464" height="159" rx="45" fill="#F3F3F3"/>
<rect x="1074.5" y="0.5" width="463" height="158" rx="44.5" stroke="#191A23"/>
<g clip-path="url(#clip2_415_2420)">
<path d="M1153.32 100.84C1148.44 100.84 1144.54 99.46 1141.62 96.7C1138.74 93.9 1137.3 89.7 1137.3 84.1V73.9C1137.3 68.42 1138.74 64.26 1141.62 61.42C1144.54 58.58 1148.44 57.16 1153.32 57.16C1158.24 57.16 1162.14 58.58 1165.02 61.42C1167.94 64.26 1169.4 68.42 1169.4 73.9V84.1C1169.4 89.7 1167.94 93.9 1165.02 96.7C1162.14 99.46 1158.24 100.84 1153.32 100.84ZM1153.32 95.2C1156.64 95.2 1159.1 94.26 1160.7 92.38C1162.3 90.46 1163.1 87.78 1163.1 84.34V73.54C1163.1 70.1 1162.24 67.46 1160.52 65.62C1158.8 63.74 1156.4 62.8 1153.32 62.8C1150.2 62.8 1147.8 63.76 1146.12 65.68C1144.44 67.56 1143.6 70.18 1143.6 73.54V84.34C1143.6 87.86 1144.4 90.56 1146 92.44C1147.64 94.28 1150.08 95.2 1153.32 95.2ZM1190.91 100.84C1187.83 100.84 1185.09 100.28 1182.69 99.16C1180.29 98.04 1178.41 96.42 1177.05 94.3C1175.73 92.18 1175.07 89.66 1175.07 86.74V85.66H1181.37V86.62C1181.37 89.26 1182.23 91.36 1183.95 92.92C1185.71 94.44 1188.03 95.2 1190.91 95.2C1193.79 95.2 1196.03 94.48 1197.63 93.04C1199.23 91.6 1200.03 89.78 1200.03 87.58V87.04C1200.03 85.48 1199.65 84.22 1198.89 83.26C1198.13 82.3 1197.11 81.6 1195.83 81.16C1194.55 80.68 1193.11 80.44 1191.51 80.44H1183.89V73.18L1198.65 64.48V63.64H1176.09V58H1205.49V66.52L1191.39 74.92V75.76H1193.97C1196.09 75.76 1198.09 76.16 1199.97 76.96C1201.85 77.76 1203.37 78.98 1204.53 80.62C1205.73 82.26 1206.33 84.34 1206.33 86.86V87.58C1206.33 90.26 1205.69 92.6 1204.41 94.6C1203.13 96.56 1201.33 98.1 1199.01 99.22C1196.69 100.3 1193.99 100.84 1190.91 100.84Z" fill="black"/>
<path d="M1236.41 89.5V86.62H1239.23V71.38H1236.41V68.5H1244.81C1247.61 68.5 1249.75 69.21 1251.23 70.63C1252.73 72.05 1253.48 74.19 1253.48 77.05V80.98C1253.48 83.84 1252.73 85.98 1251.23 87.4C1249.75 88.8 1247.61 89.5 1244.81 89.5H1236.41ZM1242.5 86.56H1244.84C1246.66 86.56 1248.01 86.1 1248.89 85.18C1249.77 84.26 1250.21 82.89 1250.21 81.07V76.93C1250.21 75.09 1249.77 73.72 1248.89 72.82C1248.01 71.92 1246.66 71.47 1244.84 71.47H1242.5V86.56ZM1264.01 89.92C1262.51 89.92 1261.2 89.61 1260.08 88.99C1258.96 88.35 1258.08 87.46 1257.44 86.32C1256.82 85.16 1256.51 83.82 1256.51 82.3V81.94C1256.51 80.4 1256.82 79.06 1257.44 77.92C1258.06 76.76 1258.92 75.87 1260.02 75.25C1261.14 74.61 1262.43 74.29 1263.89 74.29C1265.31 74.29 1266.55 74.61 1267.61 75.25C1268.69 75.87 1269.53 76.74 1270.13 77.86C1270.73 78.98 1271.03 80.29 1271.03 81.79V82.96H1259.66C1259.7 84.26 1260.13 85.3 1260.95 86.08C1261.79 86.84 1262.83 87.22 1264.07 87.22C1265.23 87.22 1266.1 86.96 1266.68 86.44C1267.28 85.92 1267.74 85.32 1268.06 84.64L1270.61 85.96C1270.33 86.52 1269.92 87.11 1269.38 87.73C1268.86 88.35 1268.17 88.87 1267.31 89.29C1266.45 89.71 1265.35 89.92 1264.01 89.92ZM1259.69 80.59H1267.88C1267.8 79.47 1267.4 78.6 1266.68 77.98C1265.96 77.34 1265.02 77.02 1263.86 77.02C1262.7 77.02 1261.75 77.34 1261.01 77.98C1260.29 78.6 1259.85 79.47 1259.69 80.59ZM1280.81 89.92C1278.93 89.92 1277.37 89.5 1276.13 88.66C1274.89 87.82 1274.13 86.55 1273.85 84.85L1276.73 84.16C1276.89 84.98 1277.16 85.63 1277.54 86.11C1277.92 86.59 1278.39 86.93 1278.95 87.13C1279.53 87.33 1280.15 87.43 1280.81 87.43C1281.79 87.43 1282.54 87.24 1283.06 86.86C1283.6 86.48 1283.87 85.99 1283.87 85.39C1283.87 84.79 1283.62 84.35 1283.12 84.07C1282.62 83.79 1281.88 83.56 1280.9 83.38L1279.88 83.2C1278.88 83.02 1277.97 82.76 1277.15 82.42C1276.33 82.08 1275.68 81.61 1275.2 81.01C1274.72 80.41 1274.48 79.64 1274.48 78.7C1274.48 77.3 1275 76.22 1276.04 75.46C1277.08 74.68 1278.46 74.29 1280.18 74.29C1281.84 74.29 1283.2 74.67 1284.26 75.43C1285.34 76.17 1286.04 77.18 1286.36 78.46L1283.48 79.27C1283.3 78.37 1282.92 77.74 1282.34 77.38C1281.76 77 1281.04 76.81 1280.18 76.81C1279.34 76.81 1278.68 76.97 1278.2 77.29C1277.72 77.59 1277.48 78.02 1277.48 78.58C1277.48 79.18 1277.71 79.62 1278.17 79.9C1278.65 80.18 1279.29 80.39 1280.09 80.53L1281.14 80.71C1282.2 80.89 1283.17 81.14 1284.05 81.46C1284.93 81.78 1285.62 82.24 1286.12 82.84C1286.64 83.44 1286.9 84.24 1286.9 85.24C1286.9 86.72 1286.35 87.87 1285.25 88.69C1284.15 89.51 1282.67 89.92 1280.81 89.92ZM1290.51 89.5V74.71H1293.6V89.5H1290.51ZM1292.07 72.7C1291.47 72.7 1290.96 72.51 1290.54 72.13C1290.14 71.73 1289.94 71.22 1289.94 70.6C1289.94 69.98 1290.14 69.48 1290.54 69.1C1290.96 68.7 1291.47 68.5 1292.07 68.5C1292.69 68.5 1293.2 68.7 1293.6 69.1C1294 69.48 1294.2 69.98 1294.2 70.6C1294.2 71.22 1294 71.73 1293.6 72.13C1293.2 72.51 1292.69 72.7 1292.07 72.7ZM1297.47 82.18V81.73C1297.47 80.17 1297.78 78.84 1298.4 77.74C1299.04 76.64 1299.88 75.79 1300.92 75.19C1301.96 74.59 1303.1 74.29 1304.34 74.29C1305.78 74.29 1306.88 74.56 1307.64 75.1C1308.42 75.64 1308.99 76.22 1309.35 76.84H1309.83V74.71H1312.83V92.53C1312.83 93.43 1312.56 94.15 1312.02 94.69C1311.5 95.23 1310.78 95.5 1309.86 95.5H1299.9V92.8H1308.9C1309.48 92.8 1309.77 92.5 1309.77 91.9V87.19H1309.29C1309.07 87.55 1308.76 87.92 1308.36 88.3C1307.96 88.68 1307.43 88.99 1306.77 89.23C1306.13 89.47 1305.32 89.59 1304.34 89.59C1303.1 89.59 1301.95 89.3 1300.89 88.72C1299.85 88.12 1299.02 87.27 1298.4 86.17C1297.78 85.05 1297.47 83.72 1297.47 82.18ZM1305.18 86.89C1306.52 86.89 1307.62 86.47 1308.48 85.63C1309.36 84.77 1309.8 83.59 1309.8 82.09V81.82C1309.8 80.28 1309.37 79.1 1308.51 78.28C1307.65 77.44 1306.54 77.02 1305.18 77.02C1303.86 77.02 1302.76 77.44 1301.88 78.28C1301.02 79.1 1300.59 80.28 1300.59 81.82V82.09C1300.59 83.59 1301.02 84.77 1301.88 85.63C1302.76 86.47 1303.86 86.89 1305.18 86.89ZM1317.38 89.5V74.71H1320.41V76.93H1320.89C1321.17 76.33 1321.67 75.77 1322.39 75.25C1323.11 74.73 1324.18 74.47 1325.6 74.47C1326.72 74.47 1327.71 74.72 1328.57 75.22C1329.45 75.72 1330.14 76.43 1330.64 77.35C1331.14 78.25 1331.39 79.34 1331.39 80.62V89.5H1328.3V80.86C1328.3 79.58 1327.98 78.64 1327.34 78.04C1326.7 77.42 1325.82 77.11 1324.7 77.11C1323.42 77.11 1322.39 77.53 1321.61 78.37C1320.85 79.21 1320.47 80.43 1320.47 82.03V89.5H1317.38ZM1346.15 89.5V77.32H1342.01V74.71H1346.15V71.47C1346.15 70.57 1346.42 69.85 1346.96 69.31C1347.5 68.77 1348.22 68.5 1349.12 68.5H1352.93V71.11H1350.11C1349.53 71.11 1349.24 71.41 1349.24 72.01V74.71H1353.5V77.32H1349.24V89.5H1346.15ZM1362.98 89.92C1361.5 89.92 1360.18 89.62 1359.02 89.02C1357.88 88.4 1356.98 87.52 1356.32 86.38C1355.66 85.24 1355.33 83.89 1355.33 82.33V81.88C1355.33 80.32 1355.66 78.98 1356.32 77.86C1356.98 76.72 1357.88 75.84 1359.02 75.22C1360.18 74.6 1361.5 74.29 1362.98 74.29C1364.46 74.29 1365.78 74.6 1366.94 75.22C1368.1 75.84 1369.01 76.72 1369.67 77.86C1370.33 78.98 1370.66 80.32 1370.66 81.88V82.33C1370.66 83.89 1370.33 85.24 1369.67 86.38C1369.01 87.52 1368.1 88.4 1366.94 89.02C1365.78 89.62 1364.46 89.92 1362.98 89.92ZM1362.98 87.16C1364.34 87.16 1365.44 86.73 1366.28 85.87C1367.14 84.99 1367.57 83.78 1367.57 82.24V81.97C1367.57 80.43 1367.15 79.23 1366.31 78.37C1365.47 77.49 1364.36 77.05 1362.98 77.05C1361.64 77.05 1360.54 77.49 1359.68 78.37C1358.84 79.23 1358.42 80.43 1358.42 81.97V82.24C1358.42 83.78 1358.84 84.99 1359.68 85.87C1360.54 86.73 1361.64 87.16 1362.98 87.16ZM1374.51 89.5V74.71H1377.54V76.45H1378.02C1378.26 75.83 1378.64 75.38 1379.16 75.1C1379.7 74.8 1380.36 74.65 1381.14 74.65H1382.91V77.44H1381.02C1380.02 77.44 1379.2 77.72 1378.56 78.28C1377.92 78.82 1377.6 79.66 1377.6 80.8V89.5H1374.51ZM1393.66 89.5V68.5H1406.62V71.44H1396.9V77.5H1405.84V80.44H1396.9V89.5H1393.66ZM1416.65 89.92C1415.17 89.92 1413.85 89.62 1412.69 89.02C1411.55 88.4 1410.65 87.52 1409.99 86.38C1409.33 85.24 1409 83.89 1409 82.33V81.88C1409 80.32 1409.33 78.98 1409.99 77.86C1410.65 76.72 1411.55 75.84 1412.69 75.22C1413.85 74.6 1415.17 74.29 1416.65 74.29C1418.13 74.29 1419.45 74.6 1420.61 75.22C1421.77 75.84 1422.68 76.72 1423.34 77.86C1424 78.98 1424.33 80.32 1424.33 81.88V82.33C1424.33 83.89 1424 85.24 1423.34 86.38C1422.68 87.52 1421.77 88.4 1420.61 89.02C1419.45 89.62 1418.13 89.92 1416.65 89.92ZM1416.65 87.16C1418.01 87.16 1419.11 86.73 1419.95 85.87C1420.81 84.99 1421.24 83.78 1421.24 82.24V81.97C1421.24 80.43 1420.82 79.23 1419.98 78.37C1419.14 77.49 1418.03 77.05 1416.65 77.05C1415.31 77.05 1414.21 77.49 1413.35 78.37C1412.51 79.23 1412.09 80.43 1412.09 81.97V82.24C1412.09 83.78 1412.51 84.99 1413.35 85.87C1414.21 86.73 1415.31 87.16 1416.65 87.16ZM1435.05 89.92C1433.63 89.92 1432.34 89.62 1431.18 89.02C1430.04 88.42 1429.13 87.55 1428.45 86.41C1427.79 85.27 1427.46 83.9 1427.46 82.3V81.91C1427.46 80.31 1427.79 78.95 1428.45 77.83C1429.13 76.69 1430.04 75.82 1431.18 75.22C1432.34 74.6 1433.63 74.29 1435.05 74.29C1436.47 74.29 1437.68 74.55 1438.68 75.07C1439.68 75.59 1440.48 76.28 1441.08 77.14C1441.7 78 1442.1 78.95 1442.28 79.99L1439.28 80.62C1439.18 79.96 1438.97 79.36 1438.65 78.82C1438.33 78.28 1437.88 77.85 1437.3 77.53C1436.72 77.21 1435.99 77.05 1435.11 77.05C1434.25 77.05 1433.47 77.25 1432.77 77.65C1432.09 78.03 1431.55 78.59 1431.15 79.33C1430.75 80.05 1430.55 80.93 1430.55 81.97V82.24C1430.55 83.28 1430.75 84.17 1431.15 84.91C1431.55 85.65 1432.09 86.21 1432.77 86.59C1433.47 86.97 1434.25 87.16 1435.11 87.16C1436.41 87.16 1437.4 86.83 1438.08 86.17C1438.76 85.49 1439.19 84.63 1439.37 83.59L1442.37 84.28C1442.13 85.3 1441.7 86.24 1441.08 87.1C1440.48 87.96 1439.68 88.65 1438.68 89.17C1437.68 89.67 1436.47 89.92 1435.05 89.92ZM1451.6 89.77C1450.48 89.77 1449.48 89.52 1448.6 89.02C1447.72 88.52 1447.03 87.81 1446.53 86.89C1446.03 85.97 1445.78 84.87 1445.78 83.59V74.71H1448.87V83.38C1448.87 84.66 1449.19 85.61 1449.83 86.23C1450.47 86.83 1451.36 87.13 1452.5 87.13C1453.76 87.13 1454.77 86.71 1455.53 85.87C1456.31 85.01 1456.7 83.78 1456.7 82.18V74.71H1459.79V89.5H1456.76V87.28H1456.28C1456 87.88 1455.5 88.45 1454.78 88.99C1454.06 89.51 1453 89.77 1451.6 89.77ZM1470.42 89.92C1468.54 89.92 1466.98 89.5 1465.74 88.66C1464.5 87.82 1463.74 86.55 1463.46 84.85L1466.34 84.16C1466.5 84.98 1466.77 85.63 1467.15 86.11C1467.53 86.59 1468 86.93 1468.56 87.13C1469.14 87.33 1469.76 87.43 1470.42 87.43C1471.4 87.43 1472.15 87.24 1472.67 86.86C1473.21 86.48 1473.48 85.99 1473.48 85.39C1473.48 84.79 1473.23 84.35 1472.73 84.07C1472.23 83.79 1471.49 83.56 1470.51 83.38L1469.49 83.2C1468.49 83.02 1467.58 82.76 1466.76 82.42C1465.94 82.08 1465.29 81.61 1464.81 81.01C1464.33 80.41 1464.09 79.64 1464.09 78.7C1464.09 77.3 1464.61 76.22 1465.65 75.46C1466.69 74.68 1468.07 74.29 1469.79 74.29C1471.45 74.29 1472.81 74.67 1473.87 75.43C1474.95 76.17 1475.65 77.18 1475.97 78.46L1473.09 79.27C1472.91 78.37 1472.53 77.74 1471.95 77.38C1471.37 77 1470.65 76.81 1469.79 76.81C1468.95 76.81 1468.29 76.97 1467.81 77.29C1467.33 77.59 1467.09 78.02 1467.09 78.58C1467.09 79.18 1467.32 79.62 1467.78 79.9C1468.26 80.18 1468.9 80.39 1469.7 80.53L1470.75 80.71C1471.81 80.89 1472.78 81.14 1473.66 81.46C1474.54 81.78 1475.23 82.24 1475.73 82.84C1476.25 83.44 1476.51 84.24 1476.51 85.24C1476.51 86.72 1475.96 87.87 1474.86 88.69C1473.76 89.51 1472.28 89.92 1470.42 89.92Z" fill="black"/>
</g>
</g>
<g filter="url(#filter3_d_415_2420)">
<rect x="198" y="224" width="530" height="159" rx="45" fill="#F3F3F3"/>
<rect x="198.5" y="224.5" width="529" height="158" rx="44.5" stroke="#191A23"/>
<g clip-path="url(#clip3_415_2420)">
<path d="M277.32 324.84C272.44 324.84 268.54 323.46 265.62 320.7C262.74 317.9 261.3 313.7 261.3 308.1V297.9C261.3 292.42 262.74 288.26 265.62 285.42C268.54 282.58 272.44 281.16 277.32 281.16C282.24 281.16 286.14 282.58 289.02 285.42C291.94 288.26 293.4 292.42 293.4 297.9V308.1C293.4 313.7 291.94 317.9 289.02 320.7C286.14 323.46 282.24 324.84 277.32 324.84ZM277.32 319.2C280.64 319.2 283.1 318.26 284.7 316.38C286.3 314.46 287.1 311.78 287.1 308.34V297.54C287.1 294.1 286.24 291.46 284.52 289.62C282.8 287.74 280.4 286.8 277.32 286.8C274.2 286.8 271.8 287.76 270.12 289.68C268.44 291.56 267.6 294.18 267.6 297.54V308.34C267.6 311.86 268.4 314.56 270 316.44C271.64 318.28 274.08 319.2 277.32 319.2ZM319.652 324V315.42H298.412V308.1L314.492 282H325.952V309.84H333.032V315.42H325.952V324H319.652ZM304.532 309.84H319.652V285.96H318.692L304.532 309V309.84Z" fill="black"/>
<path d="M369.33 313.92C367.75 313.92 366.35 313.64 365.13 313.08C363.91 312.52 362.95 311.7 362.25 310.62C361.57 309.52 361.23 308.19 361.23 306.63V305.88H364.44V306.63C364.44 308.11 364.88 309.22 365.76 309.96C366.66 310.7 367.85 311.07 369.33 311.07C370.83 311.07 371.96 310.76 372.72 310.14C373.48 309.5 373.86 308.68 373.86 307.68C373.86 307.02 373.68 306.48 373.32 306.06C372.96 305.64 372.45 305.31 371.79 305.07C371.13 304.81 370.34 304.57 369.42 304.35L368.31 304.08C366.97 303.76 365.8 303.37 364.8 302.91C363.82 302.43 363.06 301.8 362.52 301.02C361.98 300.24 361.71 299.24 361.71 298.02C361.71 296.78 362.01 295.72 362.61 294.84C363.23 293.96 364.08 293.28 365.16 292.8C366.24 292.32 367.51 292.08 368.97 292.08C370.43 292.08 371.73 292.33 372.87 292.83C374.03 293.33 374.94 294.07 375.6 295.05C376.26 296.03 376.59 297.26 376.59 298.74V299.82H373.38V298.74C373.38 297.84 373.19 297.11 372.81 296.55C372.45 295.99 371.94 295.58 371.28 295.32C370.62 295.06 369.85 294.93 368.97 294.93C367.69 294.93 366.69 295.2 365.97 295.74C365.27 296.26 364.92 296.99 364.92 297.93C364.92 298.57 365.07 299.1 365.37 299.52C365.69 299.92 366.15 300.25 366.75 300.51C367.35 300.77 368.1 301 369 301.2L370.11 301.47C371.47 301.77 372.67 302.16 373.71 302.64C374.75 303.1 375.57 303.73 376.17 304.53C376.77 305.33 377.07 306.36 377.07 307.62C377.07 308.88 376.75 309.98 376.11 310.92C375.49 311.86 374.6 312.6 373.44 313.14C372.28 313.66 370.91 313.92 369.33 313.92ZM380.561 313.5V298.71H383.651V313.5H380.561ZM382.121 296.7C381.521 296.7 381.011 296.51 380.591 296.13C380.191 295.73 379.991 295.22 379.991 294.6C379.991 293.98 380.191 293.48 380.591 293.1C381.011 292.7 381.521 292.5 382.121 292.5C382.741 292.5 383.251 292.7 383.651 293.1C384.051 293.48 384.251 293.98 384.251 294.6C384.251 295.22 384.051 295.73 383.651 296.13C383.251 296.51 382.741 296.7 382.121 296.7ZM388.237 313.5V298.71H391.267V300.45H391.747C392.027 299.93 392.477 299.47 393.097 299.07C393.717 298.67 394.557 298.47 395.617 298.47C396.717 298.47 397.597 298.7 398.257 299.16C398.937 299.6 399.447 300.17 399.787 300.87H400.267C400.607 300.19 401.097 299.62 401.737 299.16C402.397 298.7 403.327 298.47 404.527 298.47C405.487 298.47 406.337 298.67 407.077 299.07C407.817 299.45 408.407 300.03 408.847 300.81C409.287 301.57 409.507 302.52 409.507 303.66V313.5H406.417V303.9C406.417 303 406.167 302.31 405.667 301.83C405.187 301.33 404.497 301.08 403.597 301.08C402.637 301.08 401.867 301.39 401.287 302.01C400.707 302.63 400.417 303.52 400.417 304.68V313.5H397.327V303.9C397.327 303 397.077 302.31 396.577 301.83C396.097 301.33 395.407 301.08 394.507 301.08C393.547 301.08 392.777 301.39 392.197 302.01C391.617 302.63 391.327 303.52 391.327 304.68V313.5H388.237ZM413.96 319.5V298.71H416.99V300.84H417.47C417.85 300.18 418.42 299.59 419.18 299.07C419.96 298.55 421.07 298.29 422.51 298.29C423.75 298.29 424.88 298.59 425.9 299.19C426.94 299.79 427.77 300.66 428.39 301.8C429.03 302.92 429.35 304.28 429.35 305.88V306.33C429.35 307.93 429.04 309.3 428.42 310.44C427.8 311.56 426.97 312.42 425.93 313.02C424.89 313.62 423.75 313.92 422.51 313.92C421.55 313.92 420.74 313.8 420.08 313.56C419.42 313.32 418.89 313.02 418.49 312.66C418.09 312.28 417.77 311.89 417.53 311.49H417.05V319.5H413.96ZM421.61 311.22C422.97 311.22 424.08 310.79 424.94 309.93C425.8 309.07 426.23 307.84 426.23 306.24V305.97C426.23 304.39 425.79 303.17 424.91 302.31C424.05 301.45 422.95 301.02 421.61 301.02C420.29 301.02 419.19 301.45 418.31 302.31C417.45 303.17 417.02 304.39 417.02 305.97V306.24C417.02 307.84 417.45 309.07 418.31 309.93C419.19 310.79 420.29 311.22 421.61 311.22ZM433.178 313.5V292.5H436.268V313.5H433.178ZM440.854 313.5V298.71H443.944V313.5H440.854ZM442.414 296.7C441.814 296.7 441.304 296.51 440.884 296.13C440.484 295.73 440.284 295.22 440.284 294.6C440.284 293.98 440.484 293.48 440.884 293.1C441.304 292.7 441.814 292.5 442.414 292.5C443.034 292.5 443.544 292.7 443.944 293.1C444.344 293.48 444.544 293.98 444.544 294.6C444.544 295.22 444.344 295.73 443.944 296.13C443.544 296.51 443.034 296.7 442.414 296.7ZM451.2 313.5V301.32H447.06V298.71H451.2V295.47C451.2 294.57 451.47 293.85 452.01 293.31C452.55 292.77 453.27 292.5 454.17 292.5H457.98V295.11H455.16C454.58 295.11 454.29 295.41 454.29 296.01V298.71H458.55V301.32H454.29V313.5H451.2ZM463.424 319.5V316.8H471.674C472.234 316.8 472.514 316.5 472.514 315.9V311.34H472.034C471.854 311.74 471.574 312.13 471.194 312.51C470.834 312.87 470.344 313.17 469.724 313.41C469.104 313.65 468.324 313.77 467.384 313.77C466.264 313.77 465.264 313.52 464.384 313.02C463.504 312.52 462.814 311.81 462.314 310.89C461.814 309.97 461.564 308.88 461.564 307.62V298.71H464.654V307.38C464.654 308.66 464.974 309.61 465.614 310.23C466.254 310.83 467.144 311.13 468.284 311.13C469.544 311.13 470.554 310.71 471.314 309.87C472.094 309.03 472.484 307.81 472.484 306.21V298.71H475.574V316.53C475.574 317.43 475.304 318.15 474.764 318.69C474.244 319.23 473.524 319.5 472.604 319.5H463.424ZM493.338 313.5C492.438 313.5 491.718 313.23 491.178 312.69C490.658 312.15 490.398 311.43 490.398 310.53V301.32H486.318V298.71H490.398V293.82H493.488V298.71H497.898V301.32H493.488V309.99C493.488 310.59 493.768 310.89 494.328 310.89H497.418V313.5H493.338ZM501.528 313.5V292.5H504.618V300.81H505.098C505.298 300.43 505.578 300.06 505.938 299.7C506.318 299.34 506.808 299.05 507.408 298.83C508.028 298.59 508.808 298.47 509.748 298.47C510.868 298.47 511.858 298.72 512.718 299.22C513.598 299.72 514.288 300.43 514.788 301.35C515.288 302.25 515.538 303.34 515.538 304.62V313.5H512.448V304.86C512.448 303.58 512.128 302.64 511.488 302.04C510.848 301.42 509.968 301.11 508.848 301.11C507.568 301.11 506.538 301.53 505.758 302.37C504.998 303.21 504.618 304.43 504.618 306.03V313.5H501.528ZM526.765 313.92C525.265 313.92 523.955 313.61 522.835 312.99C521.715 312.35 520.835 311.46 520.195 310.32C519.575 309.16 519.265 307.82 519.265 306.3V305.94C519.265 304.4 519.575 303.06 520.195 301.92C520.815 300.76 521.675 299.87 522.775 299.25C523.895 298.61 525.185 298.29 526.645 298.29C528.065 298.29 529.305 298.61 530.365 299.25C531.445 299.87 532.285 300.74 532.885 301.86C533.485 302.98 533.785 304.29 533.785 305.79V306.96H522.415C522.455 308.26 522.885 309.3 523.705 310.08C524.545 310.84 525.585 311.22 526.825 311.22C527.985 311.22 528.855 310.96 529.435 310.44C530.035 309.92 530.495 309.32 530.815 308.64L533.365 309.96C533.085 310.52 532.675 311.11 532.135 311.73C531.615 312.35 530.925 312.87 530.065 313.29C529.205 313.71 528.105 313.92 526.765 313.92ZM522.445 304.59H530.635C530.555 303.47 530.155 302.6 529.435 301.98C528.715 301.34 527.775 301.02 526.615 301.02C525.455 301.02 524.505 301.34 523.765 301.98C523.045 302.6 522.605 303.47 522.445 304.59ZM552.861 313.92C550.301 313.92 548.271 313.2 546.771 311.76C545.271 310.3 544.521 308.2 544.521 305.46V300.54C544.521 297.8 545.271 295.71 546.771 294.27C548.271 292.81 550.301 292.08 552.861 292.08C555.381 292.08 557.321 292.78 558.681 294.18C560.061 295.58 560.751 297.49 560.751 299.91V300.09H557.541V299.82C557.541 298.4 557.151 297.24 556.371 296.34C555.611 295.44 554.441 294.99 552.861 294.99C551.261 294.99 550.011 295.48 549.111 296.46C548.211 297.42 547.761 298.76 547.761 300.48V305.52C547.761 307.22 548.211 308.56 549.111 309.54C550.011 310.52 551.261 311.01 552.861 311.01C554.441 311.01 555.611 310.56 556.371 309.66C557.151 308.74 557.541 307.58 557.541 306.18V305.67H560.751V306.09C560.751 308.51 560.061 310.42 558.681 311.82C557.321 313.22 555.381 313.92 552.861 313.92ZM571.358 313.92C569.878 313.92 568.558 313.62 567.398 313.02C566.258 312.4 565.358 311.52 564.698 310.38C564.038 309.24 563.708 307.89 563.708 306.33V305.88C563.708 304.32 564.038 302.98 564.698 301.86C565.358 300.72 566.258 299.84 567.398 299.22C568.558 298.6 569.878 298.29 571.358 298.29C572.838 298.29 574.158 298.6 575.318 299.22C576.478 299.84 577.388 300.72 578.048 301.86C578.708 302.98 579.038 304.32 579.038 305.88V306.33C579.038 307.89 578.708 309.24 578.048 310.38C577.388 311.52 576.478 312.4 575.318 313.02C574.158 313.62 572.838 313.92 571.358 313.92ZM571.358 311.16C572.718 311.16 573.818 310.73 574.658 309.87C575.518 308.99 575.948 307.78 575.948 306.24V305.97C575.948 304.43 575.528 303.23 574.688 302.37C573.848 301.49 572.738 301.05 571.358 301.05C570.018 301.05 568.918 301.49 568.058 302.37C567.218 303.23 566.798 304.43 566.798 305.97V306.24C566.798 307.78 567.218 308.99 568.058 309.87C568.918 310.73 570.018 311.16 571.358 311.16ZM582.885 313.5V298.71H585.915V300.45H586.395C586.675 299.93 587.125 299.47 587.745 299.07C588.365 298.67 589.205 298.47 590.265 298.47C591.365 298.47 592.245 298.7 592.905 299.16C593.585 299.6 594.095 300.17 594.435 300.87H594.915C595.255 300.19 595.745 299.62 596.385 299.16C597.045 298.7 597.975 298.47 599.175 298.47C600.135 298.47 600.985 298.67 601.725 299.07C602.465 299.45 603.055 300.03 603.495 300.81C603.935 301.57 604.155 302.52 604.155 303.66V313.5H601.065V303.9C601.065 303 600.815 302.31 600.315 301.83C599.835 301.33 599.145 301.08 598.245 301.08C597.285 301.08 596.515 301.39 595.935 302.01C595.355 302.63 595.065 303.52 595.065 304.68V313.5H591.975V303.9C591.975 303 591.725 302.31 591.225 301.83C590.745 301.33 590.055 301.08 589.155 301.08C588.195 301.08 587.425 301.39 586.845 302.01C586.265 302.63 585.975 303.52 585.975 304.68V313.5H582.885ZM608.608 319.5V298.71H611.638V300.84H612.118C612.498 300.18 613.068 299.59 613.828 299.07C614.608 298.55 615.718 298.29 617.158 298.29C618.398 298.29 619.528 298.59 620.548 299.19C621.588 299.79 622.418 300.66 623.038 301.8C623.678 302.92 623.998 304.28 623.998 305.88V306.33C623.998 307.93 623.688 309.3 623.068 310.44C622.448 311.56 621.618 312.42 620.578 313.02C619.538 313.62 618.398 313.92 617.158 313.92C616.198 313.92 615.388 313.8 614.728 313.56C614.068 313.32 613.538 313.02 613.138 312.66C612.738 312.28 612.418 311.89 612.178 311.49H611.698V319.5H608.608ZM616.258 311.22C617.618 311.22 618.728 310.79 619.588 309.93C620.448 309.07 620.878 307.84 620.878 306.24V305.97C620.878 304.39 620.438 303.17 619.558 302.31C618.698 301.45 617.598 301.02 616.258 301.02C614.938 301.02 613.838 301.45 612.958 302.31C612.098 303.17 611.668 304.39 611.668 305.97V306.24C611.668 307.84 612.098 309.07 612.958 309.93C613.838 310.79 614.938 311.22 616.258 311.22ZM627.827 313.5V292.5H630.917V313.5H627.827ZM642.283 313.92C640.783 313.92 639.473 313.61 638.353 312.99C637.233 312.35 636.353 311.46 635.713 310.32C635.093 309.16 634.783 307.82 634.783 306.3V305.94C634.783 304.4 635.093 303.06 635.713 301.92C636.333 300.76 637.193 299.87 638.293 299.25C639.413 298.61 640.703 298.29 642.163 298.29C643.583 298.29 644.823 298.61 645.883 299.25C646.963 299.87 647.803 300.74 648.403 301.86C649.003 302.98 649.303 304.29 649.303 305.79V306.96H637.933C637.973 308.26 638.403 309.3 639.223 310.08C640.063 310.84 641.103 311.22 642.343 311.22C643.503 311.22 644.373 310.96 644.953 310.44C645.553 309.92 646.013 309.32 646.333 308.64L648.883 309.96C648.603 310.52 648.193 311.11 647.653 311.73C647.133 312.35 646.443 312.87 645.583 313.29C644.723 313.71 643.623 313.92 642.283 313.92ZM637.963 304.59H646.153C646.073 303.47 645.673 302.6 644.953 301.98C644.233 301.34 643.293 301.02 642.133 301.02C640.973 301.02 640.023 301.34 639.283 301.98C638.563 302.6 638.123 303.47 637.963 304.59ZM650.795 313.5L656.435 306.03L650.915 298.71H654.545L658.415 304.02H658.895L662.765 298.71H666.425L660.875 306.03L666.515 313.5H662.825L658.895 308.07H658.415L654.485 313.5H650.795Z" fill="black"/>
</g>
</g>
<g filter="url(#filter4_d_415_2420)">
<rect x="769" y="224" width="484" height="159" rx="45" fill="#F3F3F3"/>
<rect x="769.5" y="224.5" width="483" height="158" rx="44.5" stroke="#191A23"/>
<g clip-path="url(#clip4_415_2420)">
<path d="M848.32 324.84C843.44 324.84 839.54 323.46 836.62 320.7C833.74 317.9 832.3 313.7 832.3 308.1V297.9C832.3 292.42 833.74 288.26 836.62 285.42C839.54 282.58 843.44 281.16 848.32 281.16C853.24 281.16 857.14 282.58 860.02 285.42C862.94 288.26 864.4 292.42 864.4 297.9V308.1C864.4 313.7 862.94 317.9 860.02 320.7C857.14 323.46 853.24 324.84 848.32 324.84ZM848.32 319.2C851.64 319.2 854.1 318.26 855.7 316.38C857.3 314.46 858.1 311.78 858.1 308.34V297.54C858.1 294.1 857.24 291.46 855.52 289.62C853.8 287.74 851.4 286.8 848.32 286.8C845.2 286.8 842.8 287.76 841.12 289.68C839.44 291.56 838.6 294.18 838.6 297.54V308.34C838.6 311.86 839.4 314.56 841 316.44C842.64 318.28 845.08 319.2 848.32 319.2ZM885.792 324.84C882.632 324.84 879.892 324.26 877.572 323.1C875.252 321.94 873.452 320.3 872.172 318.18C870.932 316.06 870.312 313.6 870.312 310.8V310.14H876.732V310.74C876.732 313.3 877.512 315.36 879.072 316.92C880.672 318.44 882.892 319.2 885.732 319.2C888.652 319.2 890.912 318.4 892.512 316.8C894.112 315.2 894.912 313.04 894.912 310.32V309.78C894.912 307.18 894.112 305.1 892.512 303.54C890.952 301.98 888.952 301.2 886.512 301.2C885.152 301.2 884.012 301.42 883.092 301.86C882.212 302.26 881.492 302.76 880.932 303.36C880.412 303.96 879.972 304.54 879.612 305.1H871.632V282H899.772V287.7H877.932V300.06H878.892C879.292 299.38 879.852 298.74 880.572 298.14C881.332 297.5 882.312 296.98 883.512 296.58C884.712 296.18 886.152 295.98 887.832 295.98C890.312 295.98 892.552 296.52 894.552 297.6C896.592 298.64 898.212 300.2 899.412 302.28C900.612 304.32 901.212 306.8 901.212 309.72V310.38C901.212 313.3 900.592 315.84 899.352 318C898.112 320.16 896.332 321.84 894.012 323.04C891.732 324.24 888.992 324.84 885.792 324.84Z" fill="black"/>
<path d="M931.19 313.5V292.5H934.43V313.5H931.19ZM944.447 313.5C943.547 313.5 942.827 313.23 942.287 312.69C941.767 312.15 941.507 311.43 941.507 310.53V301.32H937.427V298.71H941.507V293.82H944.597V298.71H949.007V301.32H944.597V309.99C944.597 310.59 944.877 310.89 945.437 310.89H948.527V313.5H944.447ZM958.89 313.92C957.39 313.92 956.08 313.61 954.96 312.99C953.84 312.35 952.96 311.46 952.32 310.32C951.7 309.16 951.39 307.82 951.39 306.3V305.94C951.39 304.4 951.7 303.06 952.32 301.92C952.94 300.76 953.8 299.87 954.9 299.25C956.02 298.61 957.31 298.29 958.77 298.29C960.19 298.29 961.43 298.61 962.49 299.25C963.57 299.87 964.41 300.74 965.01 301.86C965.61 302.98 965.91 304.29 965.91 305.79V306.96H954.54C954.58 308.26 955.01 309.3 955.83 310.08C956.67 310.84 957.71 311.22 958.95 311.22C960.11 311.22 960.98 310.96 961.56 310.44C962.16 309.92 962.62 309.32 962.94 308.64L965.49 309.96C965.21 310.52 964.8 311.11 964.26 311.73C963.74 312.35 963.05 312.87 962.19 313.29C961.33 313.71 960.23 313.92 958.89 313.92ZM954.57 304.59H962.76C962.68 303.47 962.28 302.6 961.56 301.98C960.84 301.34 959.9 301.02 958.74 301.02C957.58 301.02 956.63 301.34 955.89 301.98C955.17 302.6 954.73 303.47 954.57 304.59ZM969.63 313.5V298.71H972.66V300.45H973.14C973.38 299.83 973.76 299.38 974.28 299.1C974.82 298.8 975.48 298.65 976.26 298.65H978.03V301.44H976.14C975.14 301.44 974.32 301.72 973.68 302.28C973.04 302.82 972.72 303.66 972.72 304.8V313.5H969.63ZM985.411 313.92C984.351 313.92 983.401 313.74 982.561 313.38C981.741 313.02 981.081 312.49 980.581 311.79C980.101 311.09 979.861 310.24 979.861 309.24C979.861 308.22 980.101 307.38 980.581 306.72C981.081 306.04 981.751 305.53 982.591 305.19C983.451 304.85 984.421 304.68 985.501 304.68H990.001V303.72C990.001 302.86 989.741 302.17 989.221 301.65C988.701 301.13 987.901 300.87 986.821 300.87C985.761 300.87 984.951 301.12 984.391 301.62C983.831 302.12 983.461 302.77 983.281 303.57L980.401 302.64C980.641 301.84 981.021 301.12 981.541 300.48C982.081 299.82 982.791 299.29 983.671 298.89C984.551 298.49 985.611 298.29 986.851 298.29C988.771 298.29 990.281 298.78 991.381 299.76C992.481 300.74 993.031 302.13 993.031 303.93V310.02C993.031 310.62 993.311 310.92 993.871 310.92H995.131V313.5H992.821C992.121 313.5 991.551 313.32 991.111 312.96C990.671 312.6 990.451 312.11 990.451 311.49V311.4H990.001C989.841 311.7 989.601 312.05 989.281 312.45C988.961 312.85 988.491 313.2 987.871 313.5C987.251 313.78 986.431 313.92 985.411 313.92ZM985.861 311.37C987.101 311.37 988.101 311.02 988.861 310.32C989.621 309.6 990.001 308.62 990.001 307.38V307.08H985.681C984.861 307.08 984.201 307.26 983.701 307.62C983.201 307.96 982.951 308.47 982.951 309.15C982.951 309.83 983.211 310.37 983.731 310.77C984.251 311.17 984.961 311.37 985.861 311.37ZM1002.66 313.5C1001.76 313.5 1001.04 313.23 1000.5 312.69C999.98 312.15 999.72 311.43 999.72 310.53V301.32H995.64V298.71H999.72V293.82H1002.81V298.71H1007.22V301.32H1002.81V309.99C1002.81 310.59 1003.09 310.89 1003.65 310.89H1006.74V313.5H1002.66ZM1017.1 313.92C1015.6 313.92 1014.29 313.61 1013.17 312.99C1012.05 312.35 1011.17 311.46 1010.53 310.32C1009.91 309.16 1009.6 307.82 1009.6 306.3V305.94C1009.6 304.4 1009.91 303.06 1010.53 301.92C1011.15 300.76 1012.01 299.87 1013.11 299.25C1014.23 298.61 1015.52 298.29 1016.98 298.29C1018.4 298.29 1019.64 298.61 1020.7 299.25C1021.78 299.87 1022.62 300.74 1023.22 301.86C1023.82 302.98 1024.12 304.29 1024.12 305.79V306.96H1012.75C1012.79 308.26 1013.22 309.3 1014.04 310.08C1014.88 310.84 1015.92 311.22 1017.16 311.22C1018.32 311.22 1019.19 310.96 1019.77 310.44C1020.37 309.92 1020.83 309.32 1021.15 308.64L1023.7 309.96C1023.42 310.52 1023.01 311.11 1022.47 311.73C1021.95 312.35 1021.26 312.87 1020.4 313.29C1019.54 313.71 1018.44 313.92 1017.1 313.92ZM1012.78 304.59H1020.97C1020.89 303.47 1020.49 302.6 1019.77 301.98C1019.05 301.34 1018.11 301.02 1016.95 301.02C1015.79 301.02 1014.84 301.34 1014.1 301.98C1013.38 302.6 1012.94 303.47 1012.78 304.59ZM1037.11 313.5L1034.59 298.71H1037.68L1039.54 311.43H1040.02L1042.6 298.71H1047.61L1050.16 311.43H1050.64L1052.5 298.71H1055.59L1053.07 313.5H1047.88L1045.33 300.81H1044.85L1042.3 313.5H1037.11ZM1059.25 313.5V298.71H1062.34V313.5H1059.25ZM1060.81 296.7C1060.21 296.7 1059.7 296.51 1059.28 296.13C1058.88 295.73 1058.68 295.22 1058.68 294.6C1058.68 293.98 1058.88 293.48 1059.28 293.1C1059.7 292.7 1060.21 292.5 1060.81 292.5C1061.43 292.5 1061.94 292.7 1062.34 293.1C1062.74 293.48 1062.94 293.98 1062.94 294.6C1062.94 295.22 1062.74 295.73 1062.34 296.13C1061.94 296.51 1061.43 296.7 1060.81 296.7ZM1072.47 313.5C1071.57 313.5 1070.85 313.23 1070.31 312.69C1069.79 312.15 1069.53 311.43 1069.53 310.53V301.32H1065.45V298.71H1069.53V293.82H1072.62V298.71H1077.03V301.32H1072.62V309.99C1072.62 310.59 1072.9 310.89 1073.46 310.89H1076.55V313.5H1072.47ZM1080.66 313.5V292.5H1083.75V300.81H1084.23C1084.43 300.43 1084.71 300.06 1085.07 299.7C1085.45 299.34 1085.94 299.05 1086.54 298.83C1087.16 298.59 1087.94 298.47 1088.88 298.47C1090 298.47 1090.99 298.72 1091.85 299.22C1092.73 299.72 1093.42 300.43 1093.92 301.35C1094.42 302.25 1094.67 303.34 1094.67 304.62V313.5H1091.58V304.86C1091.58 303.58 1091.26 302.64 1090.62 302.04C1089.98 301.42 1089.1 301.11 1087.98 301.11C1086.7 301.11 1085.67 301.53 1084.89 302.37C1084.13 303.21 1083.75 304.43 1083.75 306.03V313.5H1080.66ZM1106.68 313.5V292.5H1109.92V313.5H1106.68ZM1114.39 313.5V298.71H1117.42V300.93H1117.9C1118.18 300.33 1118.68 299.77 1119.4 299.25C1120.12 298.73 1121.19 298.47 1122.61 298.47C1123.73 298.47 1124.72 298.72 1125.58 299.22C1126.46 299.72 1127.15 300.43 1127.65 301.35C1128.15 302.25 1128.4 303.34 1128.4 304.62V313.5H1125.31V304.86C1125.31 303.58 1124.99 302.64 1124.35 302.04C1123.71 301.42 1122.83 301.11 1121.71 301.11C1120.43 301.11 1119.4 301.53 1118.62 302.37C1117.86 303.21 1117.48 304.43 1117.48 306.03V313.5H1114.39ZM1137.98 313.5C1137.08 313.5 1136.36 313.23 1135.82 312.69C1135.3 312.15 1135.04 311.43 1135.04 310.53V301.32H1130.96V298.71H1135.04V293.82H1138.13V298.71H1142.54V301.32H1138.13V309.99C1138.13 310.59 1138.41 310.89 1138.97 310.89H1142.06V313.5H1137.98ZM1152.43 313.92C1150.93 313.92 1149.62 313.61 1148.5 312.99C1147.38 312.35 1146.5 311.46 1145.86 310.32C1145.24 309.16 1144.93 307.82 1144.93 306.3V305.94C1144.93 304.4 1145.24 303.06 1145.86 301.92C1146.48 300.76 1147.34 299.87 1148.44 299.25C1149.56 298.61 1150.85 298.29 1152.31 298.29C1153.73 298.29 1154.97 298.61 1156.03 299.25C1157.11 299.87 1157.95 300.74 1158.55 301.86C1159.15 302.98 1159.45 304.29 1159.45 305.79V306.96H1148.08C1148.12 308.26 1148.55 309.3 1149.37 310.08C1150.21 310.84 1151.25 311.22 1152.49 311.22C1153.65 311.22 1154.52 310.96 1155.1 310.44C1155.7 309.92 1156.16 309.32 1156.48 308.64L1159.03 309.96C1158.75 310.52 1158.34 311.11 1157.8 311.73C1157.28 312.35 1156.59 312.87 1155.73 313.29C1154.87 313.71 1153.77 313.92 1152.43 313.92ZM1148.11 304.59H1156.3C1156.22 303.47 1155.82 302.6 1155.1 301.98C1154.38 301.34 1153.44 301.02 1152.28 301.02C1151.12 301.02 1150.17 301.34 1149.43 301.98C1148.71 302.6 1148.27 303.47 1148.11 304.59ZM1163.16 313.5V298.71H1166.19V300.93H1166.67C1166.95 300.33 1167.45 299.77 1168.17 299.25C1168.89 298.73 1169.96 298.47 1171.38 298.47C1172.5 298.47 1173.49 298.72 1174.35 299.22C1175.23 299.72 1175.92 300.43 1176.42 301.35C1176.92 302.25 1177.17 303.34 1177.17 304.62V313.5H1174.08V304.86C1174.08 303.58 1173.76 302.64 1173.12 302.04C1172.48 301.42 1171.6 301.11 1170.48 301.11C1169.2 301.11 1168.17 301.53 1167.39 302.37C1166.63 303.21 1166.25 304.43 1166.25 306.03V313.5H1163.16ZM1186.76 313.5C1185.86 313.5 1185.14 313.23 1184.6 312.69C1184.08 312.15 1183.82 311.43 1183.82 310.53V301.32H1179.74V298.71H1183.82V293.82H1186.91V298.71H1191.32V301.32H1186.91V309.99C1186.91 310.59 1187.19 310.89 1187.75 310.89H1190.84V313.5H1186.76Z" fill="black"/>
</g>
</g>
<defs>
<filter id="filter0_d_415_2420" x="0" y="0" width="414" height="164" filterUnits="userSpaceOnUse" color-interpolation-filters="sRGB">
<feFlood flood-opacity="0" result="BackgroundImageFix"/>
<feColorMatrix in="SourceAlpha" type="matrix" values="0 0 0 0 0 0 0 0 0 0 0 0 0 0 0 0 0 0 127 0" result="hardAlpha"/>
<feOffset dy="5"/>
<feComposite in2="hardAlpha" operator="out"/>
<feColorMatrix type="matrix" values="0 0 0 0 0.0980392 0 0 0 0 0.101961 0 0 0 0 0.137255 0 0 0 1 0"/>
<feBlend mode="normal" in2="BackgroundImageFix" result="effect1_dropShadow_415_2420"/>
<feBlend mode="normal" in="SourceGraphic" in2="effect1_dropShadow_415_2420" result="shape"/>
</filter>
<filter id="filter1_d_415_2420" x="444" y="0" width="567" height="164" filterUnits="userSpaceOnUse" color-interpolation-filters="sRGB">
<feFlood flood-opacity="0" result="BackgroundImageFix"/>
<feColorMatrix in="SourceAlpha" type="matrix" values="0 0 0 0 0 0 0 0 0 0 0 0 0 0 0 0 0 0 127 0" result="hardAlpha"/>
<feOffset dy="5"/>
<feComposite in2="hardAlpha" operator="out"/>
<feColorMatrix type="matrix" values="0 0 0 0 0.0980392 0 0 0 0 0.101961 0 0 0 0 0.137255 0 0 0 1 0"/>
<feBlend mode="normal" in2="BackgroundImageFix" result="effect1_dropShadow_415_2420"/>
<feBlend mode="normal" in="SourceGraphic" in2="effect1_dropShadow_415_2420" result="shape"/>
</filter>
<filter id="filter2_d_415_2420" x="1074" y="0" width="464" height="164" filterUnits="userSpaceOnUse" color-interpolation-filters="sRGB">
<feFlood flood-opacity="0" result="BackgroundImageFix"/>
<feColorMatrix in="SourceAlpha" type="matrix" values="0 0 0 0 0 0 0 0 0 0 0 0 0 0 0 0 0 0 127 0" result="hardAlpha"/>
<feOffset dy="5"/>
<feComposite in2="hardAlpha" operator="out"/>
<feColorMatrix type="matrix" values="0 0 0 0 0.0980392 0 0 0 0 0.101961 0 0 0 0 0.137255 0 0 0 1 0"/>
<feBlend mode="normal" in2="BackgroundImageFix" result="effect1_dropShadow_415_2420"/>
<feBlend mode="normal" in="SourceGraphic" in2="effect1_dropShadow_415_2420" result="shape"/>
</filter>
<filter id="filter3_d_415_2420" x="198" y="224" width="530" height="164" filterUnits="userSpaceOnUse" color-interpolation-filters="sRGB">
<feFlood flood-opacity="0" result="BackgroundImageFix"/>
<feColorMatrix in="SourceAlpha" type="matrix" values="0 0 0 0 0 0 0 0 0 0 0 0 0 0 0 0 0 0 127 0" result="hardAlpha"/>
<feOffset dy="5"/>
<feComposite in2="hardAlpha" operator="out"/>
<feColorMatrix type="matrix" values="0 0 0 0 0.0980392 0 0 0 0 0.101961 0 0 0 0 0.137255 0 0 0 1 0"/>
<feBlend mode="normal" in2="BackgroundImageFix" result="effect1_dropShadow_415_2420"/>
<feBlend mode="normal" in="SourceGraphic" in2="effect1_dropShadow_415_2420" result="shape"/>
</filter>
<filter id="filter4_d_415_2420" x="769" y="224" width="484" height="164" filterUnits="userSpaceOnUse" color-interpolation-filters="sRGB">
<feFlood flood-opacity="0" result="BackgroundImageFix"/>
<feColorMatrix in="SourceAlpha" type="matrix" values="0 0 0 0 0 0 0 0 0 0 0 0 0 0 0 0 0 0 127 0" result="hardAlpha"/>
<feOffset dy="5"/>
<feComposite in2="hardAlpha" operator="out"/>
<feColorMatrix type="matrix" values="0 0 0 0 0.0980392 0 0 0 0 0.101961 0 0 0 0 0.137255 0 0 0 1 0"/>
<feBlend mode="normal" in2="BackgroundImageFix" result="effect1_dropShadow_415_2420"/>
<feBlend mode="normal" in="SourceGraphic" in2="effect1_dropShadow_415_2420" result="shape"/>
</filter>
<clipPath id="clip0_415_2420">
<rect width="294" height="77" fill="white" transform="translate(60 41)"/>
</clipPath>
<clipPath id="clip1_415_2420">
<rect width="447" height="77" fill="white" transform="translate(504 41)"/>
</clipPath>
<clipPath id="clip2_415_2420">
<rect width="344" height="77" fill="white" transform="translate(1134 41)"/>
</clipPath>
<clipPath id="clip3_415_2420">
<rect width="410" height="77" fill="white" transform="translate(258 265)"/>
</clipPath>
<clipPath id="clip4_415_2420">
<rect width="364" height="77" fill="white" transform="translate(829 265)"/>
</clipPath>
</defs>
</svg>
