<svg width="48" height="49" viewBox="0 0 48 49" fill="none" xmlns="http://www.w3.org/2000/svg">
<path fill-rule="evenodd" clip-rule="evenodd" d="M24 6.5C19.1112 6.5 18.4992 6.5204 16.5792 6.608C14.6628 6.6956 13.3536 7.0004 12.2088 7.4456C11.0088 7.8968 9.9204 8.6048 9.0204 9.5216C8.10507 10.4206 7.39663 11.5082 6.9444 12.7088C6.5016 13.8536 6.1956 15.164 6.108 17.0804C6.0216 18.9992 6 19.61 6 24.5C6 29.39 6.0204 30.0008 6.108 31.9208C6.1956 33.8372 6.5004 35.1464 6.9456 36.2912C7.3968 37.4912 8.1048 38.5796 9.0216 39.4796C9.92058 40.3949 11.0082 41.1033 12.2088 41.5556C13.3536 41.9996 14.6628 42.3044 16.5792 42.392C18.4992 42.4796 19.1112 42.5 24 42.5C28.8888 42.5 29.5008 42.4796 31.4208 42.392C33.3372 42.3044 34.6464 41.9996 35.7912 41.5544C36.9912 41.1032 38.0796 40.3952 38.9796 39.4784C39.8949 38.5794 40.6034 37.4918 41.0556 36.2912C41.4996 35.1464 41.8044 33.8372 41.892 31.9208C41.9796 30.0008 42 29.3888 42 24.5C42 19.6112 41.9796 18.9992 41.892 17.0792C41.8044 15.1628 41.4996 13.8536 41.0544 12.7088C40.6025 11.5077 39.894 10.4196 38.9784 9.5204C38.0794 8.60507 36.9918 7.89663 35.7912 7.4444C34.6464 7.0016 33.336 6.6956 31.4196 6.608C29.5008 6.5216 28.89 6.5 24 6.5ZM24 9.7436C28.806 9.7436 29.376 9.7616 31.2744 9.848C33.0288 9.9284 33.9816 10.22 34.6164 10.4684C35.4564 10.7936 36.0564 11.1848 36.6864 11.8136C37.3164 12.4436 37.7064 13.0436 38.0316 13.8836C38.2788 14.5184 38.5716 15.4712 38.652 17.2256C38.7384 19.124 38.7564 19.694 38.7564 24.5C38.7564 29.306 38.7384 29.876 38.652 31.7744C38.5716 33.5288 38.28 34.4816 38.0316 35.1164C37.7435 35.8983 37.2839 36.6056 36.6864 37.1864C36.1057 37.784 35.3983 38.2437 34.6164 38.5316C33.9816 38.7788 33.0288 39.0716 31.2744 39.152C29.376 39.2384 28.8072 39.2564 24 39.2564C19.1928 39.2564 18.624 39.2384 16.7256 39.152C14.9712 39.0716 14.0184 38.78 13.3836 38.5316C12.6017 38.2435 11.8944 37.7839 11.3136 37.1864C10.7162 36.6055 10.2566 35.8982 9.9684 35.1164C9.7212 34.4816 9.4284 33.5288 9.348 31.7744C9.2616 29.876 9.2436 29.306 9.2436 24.5C9.2436 19.694 9.2616 19.124 9.348 17.2256C9.4284 15.4712 9.72 14.5184 9.9684 13.8836C10.2936 13.0436 10.6848 12.4436 11.3136 11.8136C11.8943 11.2161 12.6017 10.7564 13.3836 10.4684C14.0184 10.2212 14.9712 9.9284 16.7256 9.848C18.624 9.7616 19.194 9.7436 24 9.7436Z" fill="black"/>
<path fill-rule="evenodd" clip-rule="evenodd" d="M24 30.5061C23.2113 30.5061 22.4303 30.3507 21.7016 30.0489C20.9729 29.7471 20.3108 29.3047 19.7531 28.747C19.1954 28.1892 18.753 27.5271 18.4512 26.7985C18.1493 26.0698 17.994 25.2888 17.994 24.5001C17.994 23.7113 18.1493 22.9304 18.4512 22.2017C18.753 21.473 19.1954 20.8109 19.7531 20.2532C20.3108 19.6955 20.9729 19.2531 21.7016 18.9512C22.4303 18.6494 23.2113 18.4941 24 18.4941C25.5929 18.4941 27.1205 19.1268 28.2469 20.2532C29.3732 21.3795 30.006 22.9072 30.006 24.5001C30.006 26.093 29.3732 27.6206 28.2469 28.747C27.1205 29.8733 25.5929 30.5061 24 30.5061ZM24 15.2481C21.5462 15.2481 19.1929 16.2228 17.4578 17.9579C15.7227 19.693 14.748 22.0463 14.748 24.5001C14.748 26.9538 15.7227 29.3071 17.4578 31.0422C19.1929 32.7773 21.5462 33.7521 24 33.7521C26.4538 33.7521 28.807 32.7773 30.5421 31.0422C32.2772 29.3071 33.252 26.9538 33.252 24.5001C33.252 22.0463 32.2772 19.693 30.5421 17.9579C28.807 16.2228 26.4538 15.2481 24 15.2481ZM35.9436 15.0801C35.9436 15.6601 35.7132 16.2164 35.303 16.6265C34.8929 17.0367 34.3366 17.2671 33.7566 17.2671C33.1766 17.2671 32.6203 17.0367 32.2101 16.6265C31.8 16.2164 31.5696 15.6601 31.5696 15.0801C31.5696 14.5 31.8 13.9438 32.2101 13.5336C32.6203 13.1235 33.1766 12.8931 33.7566 12.8931C34.3366 12.8931 34.8929 13.1235 35.303 13.5336C35.7132 13.9438 35.9436 14.5 35.9436 15.0801Z" fill="black"/>
</svg>
