<svg width="80" height="81" viewBox="0 0 80 81" fill="none" xmlns="http://www.w3.org/2000/svg">
<path d="M48.3156 71.3736C46.7801 71.9317 45.2052 72.0067 43.6439 72.0903C42.3075 72.1616 40.965 72.153 39.6261 72.1112C38.816 72.0866 38.0119 71.9219 37.203 71.8407C36.694 71.7891 36.1813 71.7756 35.6699 71.7412C35.4695 71.7276 35.3883 71.8063 35.3982 72.0129C35.4105 72.2797 35.4068 72.5489 35.3982 72.8169C35.3933 72.9915 35.4658 73.0579 35.6355 73.0517C35.7695 73.0468 35.9035 73.064 36.0375 73.0628C37.1698 73.0554 38.2664 73.2693 39.379 73.471C40.7314 73.7168 42.1268 73.7291 43.5049 73.8324C43.7262 73.8496 43.9524 73.7931 44.1737 73.8103C45.5703 73.9197 46.9153 73.4906 48.2935 73.4218C48.4927 73.4119 48.6955 73.3087 48.8812 73.2165C49.1983 73.0579 49.5131 73.0726 49.7172 73.2841C49.9311 73.5066 49.9397 73.8373 49.7331 74.1459C49.5143 74.4717 49.2278 74.7163 48.8381 74.8061C48.4582 74.8934 48.0734 74.9585 47.6898 75.0274C47.2411 75.1085 46.7899 75.186 46.3412 75.2647C46.056 75.3138 45.772 75.395 45.4843 75.4073C43.543 75.4872 41.6006 75.5425 39.6716 75.2229C39.4848 75.1921 39.2905 75.1811 39.1122 75.1233C38.0181 74.7618 36.887 74.6709 35.7461 74.6512C35.5236 74.6475 35.2998 74.6512 35.0785 74.6721C34.3175 74.7459 33.8725 74.3955 33.8381 73.6259C33.811 73.0247 33.8319 72.421 33.8553 71.8186C33.8639 71.6072 33.827 71.4682 33.634 71.3514C33.361 71.1855 33.1877 70.9371 33.2455 70.5954C33.2996 70.2708 33.5246 70.1147 33.8282 70.0212C33.9167 69.9942 34.02 69.8417 34.0262 69.7421C34.0864 68.8287 34.1282 67.914 34.1712 67.0006C34.1737 66.9366 34.1712 66.8592 34.138 66.8075C33.4299 65.6654 33.3856 64.3758 33.3057 63.0947C33.2135 61.6243 33.1668 60.1515 33.0328 58.6848C32.9111 57.3497 32.6738 56.0317 32.1267 54.7876C31.7837 54.0069 31.3153 53.3283 30.649 52.7885C29.5917 51.9304 28.5799 51.0108 27.4758 50.2178C24.9912 48.4327 23.672 45.9665 23.0623 43.0405C22.0984 38.4179 22.6061 33.9158 24.1503 29.4973C24.2708 29.1506 24.3986 28.7941 24.5953 28.488C25.5137 27.0508 26.4468 25.6222 27.4009 24.2084C27.616 23.89 27.9111 23.6097 28.216 23.3712C30.4092 21.6598 32.7181 20.1231 35.4092 19.3202C38.232 18.4769 41.126 18.1302 44.0397 18.7584C46.3092 19.2477 48.4238 20.1919 50.4769 21.2701C51.4051 21.7582 52.3407 22.2327 53.2947 22.6679C55.1696 23.5224 56.6953 24.7555 57.835 26.4976C58.8701 28.081 59.759 29.7088 60.145 31.5824C60.3971 32.8081 60.209 34.0019 59.9889 35.203C59.3631 38.6011 58.264 41.8419 56.5416 44.833C55.3909 46.832 54.1025 48.7573 52.7981 50.6617C51.7457 52.1984 50.8064 53.7856 50.1155 55.5142C49.3803 57.3546 49.0594 59.2516 49.2278 61.2469C49.3791 63.0468 49.4086 64.8577 49.502 66.6637C49.5082 66.7805 49.5721 66.917 49.6532 67.0042C49.9778 67.3559 49.9643 67.6989 49.6274 68.0247C49.5229 68.1255 49.4455 68.2964 49.4307 68.4427C49.3225 69.4975 49.2451 70.5548 49.1283 71.6084C49.1 71.8653 48.9918 72.1272 48.8639 72.3559C48.8086 72.4542 48.6107 72.4714 48.4779 72.5268C48.4435 72.4063 48.3906 72.2883 48.3771 72.1665C48.3476 71.9022 48.3365 71.6354 48.3193 71.376L48.3156 71.3736ZM48.0661 66.6981C48.0661 66.3281 48.0833 66.0182 48.0636 65.7097C47.9665 64.2172 47.8792 62.7222 47.7526 61.2321C47.5632 58.9958 48.0144 56.8788 48.8824 54.8355C49.6311 53.0713 50.6085 51.4411 51.7002 49.865C52.9456 48.0676 54.1664 46.2468 55.279 44.3658C57.042 41.387 58.071 38.1327 58.7189 34.7358C59.0619 32.9372 58.8185 31.264 58.0083 29.667C57.5547 28.7744 57.0014 27.9323 56.4642 27.0852C55.5286 25.6099 54.1812 24.6362 52.5964 23.949C51.635 23.5322 50.6995 23.0552 49.7393 22.6323C48.4742 22.0754 47.203 21.527 45.922 21.0082C42.664 19.6866 39.3532 19.9116 36.0596 20.8091C33.4963 21.5074 31.3313 22.9876 29.2487 24.5834C29.0384 24.7444 28.8331 24.9374 28.6893 25.1575C27.766 26.5652 26.8476 27.9753 25.9575 29.4051C25.7498 29.7395 25.6366 30.1415 25.5186 30.5239C24.3175 34.4039 23.9069 38.3343 24.7429 42.3533C25.2863 44.967 26.3854 47.2144 28.6032 48.836C29.6101 49.5724 30.5137 50.449 31.4985 51.2174C32.9971 52.3853 33.8295 53.9553 34.3175 55.7379C34.8363 57.6337 34.979 59.581 35.0761 61.5358C35.1339 62.7038 35.2384 63.8729 35.3822 65.0335C35.4719 65.7539 35.5826 65.8031 36.3006 65.8879C36.3559 65.8941 36.4112 65.8978 36.4678 65.9027C37.3788 65.9838 38.2885 66.0896 39.202 66.1387C39.931 66.1781 40.665 66.1461 41.4112 66.1461C41.0891 64.8343 41.0658 63.5053 41.008 62.1788C40.9514 60.8744 40.8838 59.57 40.8236 58.2656C40.7744 57.1849 40.7006 56.1043 40.6908 55.0224C40.6773 53.5053 40.7388 51.987 40.7154 50.4699C40.7068 49.8847 40.8924 49.5232 41.4309 49.297C42.948 48.6614 43.8111 47.4799 44.2131 45.9161C44.5585 44.5711 44.3372 43.3503 43.4607 42.2623C43.3881 42.1713 43.3008 42.0927 43.2062 41.9943C43.1115 42.1295 43.05 42.2377 42.9689 42.3275C42.573 42.7639 42.2153 43.2495 41.7629 43.6159C41.0043 44.2318 40.0441 44.2269 39.2303 43.7044C38.1914 43.0368 38.0402 41.5468 38.961 40.7292C39.7466 40.0309 40.6785 39.7002 41.7432 39.8527C42.605 39.9756 42.605 39.9818 42.8361 39.1298C42.8595 39.0437 42.8779 38.9564 42.8976 38.8691C43.1017 37.9631 42.9689 37.0717 42.7931 36.1792C42.7353 35.8853 42.6874 35.5841 42.6812 35.2854C42.6751 35.0002 42.8079 34.7629 43.1054 34.6695C43.4127 34.5736 43.6586 34.6904 43.8356 34.9375C43.9451 35.0899 44.036 35.262 44.1012 35.4378C44.7331 37.1553 44.7712 38.8642 43.9819 40.5473C43.8836 40.7587 43.8836 40.8927 44.0557 41.071C44.6003 41.6316 44.9913 42.2906 45.1966 43.0516C45.5851 44.4888 45.322 45.851 44.7725 47.1984C44.309 48.3332 43.5344 49.1421 42.4403 49.6658C42.2091 49.7765 41.9891 49.9154 41.7493 50.0039C41.528 50.0851 41.5034 50.208 41.5551 50.4121C41.7174 51.0489 41.9301 51.6808 42.0075 52.3275C42.2251 54.1667 42.3616 56.0157 42.573 57.8549C42.8669 60.4134 42.6947 62.9607 42.455 65.5093C42.4317 65.7613 42.4206 66.0146 42.4034 66.2691C44.2856 66.7645 46.1728 66.5358 48.0636 66.6944L48.0661 66.6981ZM35.4928 70.0175C35.9182 70.0446 36.3202 70.0446 36.7161 70.0999C37.8853 70.2622 39.0311 70.5622 40.2285 70.5437C42.3923 70.5105 44.5561 70.5363 46.7198 70.513C47.1587 70.5081 47.5952 70.3864 48.0341 70.3286C48.221 70.304 48.2677 70.213 48.2554 70.0347C48.2222 69.5565 48.1927 69.077 48.1865 68.5963C48.1828 68.348 48.0956 68.2755 47.8497 68.2767C46.8895 68.2841 45.9293 68.2976 44.9704 68.2558C44.1922 68.2226 43.4176 68.1119 42.6419 68.0394C42.0112 67.9804 41.3805 67.9115 40.7474 67.871C39.9691 67.8206 39.1885 67.8046 38.409 67.7517C37.3898 67.6829 36.3731 67.5919 35.3478 67.5108C35.3957 68.332 35.4437 69.1631 35.4928 70.0163V70.0175ZM41.8354 41.2985C41.2035 41.0477 40.3232 41.2837 39.9802 41.7324C39.7909 41.9808 39.8474 42.3017 40.1413 42.384C40.3453 42.4406 40.6515 42.459 40.7928 42.3459C41.1666 42.0484 41.4752 41.6697 41.8342 41.2985H41.8354Z" fill="black"/>
<path d="M49.384 16.6647C49.4074 15.6947 49.598 14.9055 49.8979 14.1432C50.6405 12.2561 51.3904 10.3714 52.1428 8.4867C52.2375 8.24942 52.3445 8.01091 52.4883 7.80191C52.6112 7.62242 52.7711 7.44661 52.9555 7.33719C53.4546 7.03968 53.9808 7.32121 54.0079 7.90149C54.0189 8.14 53.9648 8.38957 53.9009 8.62316C53.4214 10.4033 52.787 12.1233 51.9892 13.7916C51.549 14.7112 51.2798 15.7095 50.9097 16.6635C50.7671 17.0311 50.5913 17.3975 50.3626 17.7171C50.2692 17.8487 49.9766 17.9347 49.8143 17.8917C49.6729 17.8536 49.5353 17.6188 49.4898 17.4467C49.4111 17.1479 49.4037 16.8307 49.384 16.6647Z" fill="black"/>
<path d="M17.2029 59.613C17.6922 59.2872 18.2405 58.9245 18.7864 58.5594C19.6691 57.9681 20.6354 57.5759 21.673 57.3632C21.9201 57.3128 22.1845 57.3079 22.4365 57.3288C22.7328 57.3533 22.9713 57.507 23.0586 57.8095C23.1483 58.118 23.0549 58.3885 22.8078 58.5889C22.6713 58.7008 22.5164 58.8004 22.3541 58.868C21.019 59.4261 19.7933 60.1687 18.6192 61.0084C18.2036 61.3059 17.7524 61.5579 17.2976 61.7928C17.0664 61.912 16.7947 61.9968 16.5353 62.014C15.6932 62.0694 15.1362 61.301 15.4264 60.5092C15.6526 59.8909 16.1603 59.6044 16.7529 59.452C16.8636 59.4237 17.0123 59.5405 17.2017 59.613H17.2029Z" fill="black"/>
<path d="M68.306 11.4963C68.4793 11.6082 68.724 11.682 68.794 11.8357C68.8653 11.9906 68.8211 12.2586 68.7264 12.4159C68.5986 12.6274 68.3896 12.802 68.1855 12.9532C66.5848 14.1322 65.0185 15.3518 63.574 16.7226C62.9113 17.352 62.1515 17.8327 61.2897 18.1499C61.002 18.2556 60.718 18.3356 60.4906 18.0675C60.257 17.7922 60.3492 17.4873 60.525 17.2303C60.6602 17.0312 60.8483 16.864 61.0303 16.7029C61.6733 16.1349 62.3495 15.6013 62.9666 15.0075C64.2796 13.7437 65.7144 12.6606 67.3519 11.8553C67.6384 11.7152 67.9507 11.6291 68.3047 11.4976L68.306 11.4963Z" fill="black"/>
<path d="M8.93137 45.6212C8.66459 45.6212 8.39534 45.6458 8.13102 45.6163C7.63311 45.561 7.3233 45.2659 7.28764 44.8565C7.25199 44.4521 7.50279 44.0832 7.98595 43.9615C8.44821 43.8447 8.92645 43.7759 9.40223 43.7353C10.6341 43.6308 11.8684 43.5214 13.104 43.4796C13.94 43.4513 14.7367 43.2669 15.5333 43.0591C15.8222 42.9829 16.0693 43.01 16.239 43.2731C16.4197 43.5558 16.3632 43.8374 16.1566 44.0759C15.7595 44.5357 15.2481 44.8492 14.6715 44.9967C14.0924 45.1454 13.4925 45.2327 12.8962 45.2942C11.5771 45.4307 10.2542 45.5339 8.93383 45.6507V45.6225L8.93137 45.6212Z" fill="black"/>
<path d="M19.2129 22.5364C17.3528 22.1208 15.3698 22.138 13.5896 21.2393C13.1814 21.034 12.7499 20.8767 12.3368 20.6787C12.1696 20.5988 12 20.4919 11.8783 20.3542C11.5721 20.0075 11.716 19.5059 12.1672 19.4087C12.429 19.3522 12.7229 19.3743 12.9897 19.4296C13.3597 19.5046 13.7273 19.6153 14.0752 19.7616C15.0292 20.1599 16.0214 20.3898 17.032 20.5939C17.9688 20.782 18.8859 21.0783 19.8092 21.3316C20.0809 21.4065 20.269 21.5701 20.2629 21.875C20.2567 22.1725 20.0698 22.3446 19.8055 22.4257C19.6273 22.4811 19.4367 22.4958 19.2129 22.5364Z" fill="black"/>
<path d="M34.1934 13.7695C34.1639 13.8642 34.143 14.0633 34.0471 14.2146C33.8357 14.5453 33.3734 14.4629 33.2025 14.067C32.9677 13.5249 32.7476 12.9778 32.5251 12.4295C31.9436 10.9935 31.3609 9.55755 30.7879 8.1179C30.6896 7.87202 30.5851 7.60524 30.59 7.34952C30.5937 7.14667 30.7154 6.89464 30.8691 6.76063C31.0781 6.57745 31.3412 6.69424 31.5379 6.86021C31.6633 6.96594 31.7801 7.09503 31.8649 7.23642C33.0132 9.15061 33.7336 11.2259 34.159 13.4093C34.1762 13.4966 34.1762 13.5863 34.1934 13.7695Z" fill="black"/>
<path d="M66.9806 36.2553C67.9064 36.1213 68.8296 35.9689 69.7579 35.8595C70.3664 35.7882 70.9811 35.7685 71.5934 35.7464C71.8011 35.739 72.0175 35.7734 72.2191 35.83C72.5179 35.9136 72.7306 36.1078 72.7761 36.4311C72.824 36.7692 72.674 37.0323 72.3839 37.1786C72.1491 37.2966 71.8872 37.4011 71.629 37.4257C70.375 37.5474 69.1186 37.6507 67.8621 37.7368C67.2744 37.7773 66.7015 37.6679 66.1926 37.3507C65.9036 37.1712 65.5865 36.9377 65.6811 36.5651C65.7721 36.2037 66.1729 36.248 66.4729 36.2049C66.6364 36.1816 66.8073 36.2012 66.9745 36.2012L66.9818 36.2541L66.9806 36.2553Z" fill="black"/>
<path d="M69.4615 54.9327C69.1603 54.8343 68.912 54.7913 68.6993 54.6794C67.6924 54.1508 66.6708 53.6442 65.7057 53.048C65.1451 52.7013 64.6656 52.2169 64.1787 51.7632C63.8505 51.4583 63.7128 51.0367 63.6562 50.5953C63.6181 50.2953 63.7607 50.181 64.0238 50.3211C64.3865 50.5141 64.7369 50.7281 65.0873 50.9432C65.8077 51.387 66.5232 51.8395 67.2412 52.287C67.9125 52.705 68.5923 53.1107 69.2538 53.5434C69.4652 53.6811 69.6644 53.8631 69.807 54.0684C69.9078 54.2135 69.9853 54.4692 69.9226 54.6069C69.8525 54.7605 69.6115 54.8355 69.4628 54.9327H69.4615Z" fill="black"/>
</svg>
