<svg width="48" height="49" viewBox="0 0 48 49" fill="none" xmlns="http://www.w3.org/2000/svg">
<path d="M23.9918 4.5C12.9346 4.5 4 13.451 4 24.4918C4 32.9656 9.26532 40.2055 16.7026 43.1178C16.5216 41.5382 16.3735 39.103 16.7684 37.3754C17.1304 35.8122 19.1049 27.4371 19.1049 27.4371C19.1049 27.4371 18.5126 26.2359 18.5126 24.4753C18.5126 21.6946 20.125 19.6214 22.1324 19.6214C23.8437 19.6214 24.6664 20.9048 24.6664 22.435C24.6664 24.1462 23.5804 26.7131 23.0045 29.0989C22.5274 31.0899 24.0082 32.7188 25.9663 32.7188C29.5204 32.7188 32.2518 28.9673 32.2518 23.5704C32.2518 18.7822 28.8128 15.442 23.893 15.442C18.1999 15.442 14.8597 19.7036 14.8597 24.1133C14.8597 25.8246 15.5179 27.6674 16.3406 28.6711C16.5052 28.8686 16.5216 29.0496 16.4722 29.247C16.3242 29.8723 15.9786 31.238 15.9128 31.5177C15.8305 31.8797 15.6166 31.962 15.2382 31.781C12.77 30.5962 11.2234 26.9434 11.2234 24.0146C11.2234 17.7127 15.7976 11.9208 24.436 11.9208C31.3632 11.9208 36.7602 16.857 36.7602 23.4716C36.7602 30.3659 32.4163 35.911 26.3941 35.911C24.3702 35.911 22.4615 34.8579 21.8198 33.6074C21.8198 33.6074 20.8161 37.4247 20.5693 38.3626C20.125 40.1068 18.9074 42.2787 18.0847 43.6115C19.9605 44.1874 21.935 44.5 24.0082 44.5C35.049 44.5 44 35.549 44 24.5082C43.9836 13.451 35.0325 4.5 23.9918 4.5Z" fill="black"/>
</svg>
