<svg width="48" height="49" viewBox="0 0 48 49" fill="none" xmlns="http://www.w3.org/2000/svg">
<path d="M15.5782 11.307C16.659 11.2869 17.7383 11.3977 18.7925 11.637C19.6801 11.8308 20.5228 12.1914 21.2758 12.6996C21.9712 13.205 22.5215 13.8845 22.8714 14.6698C23.2734 15.6354 23.4674 16.675 23.4406 17.7207C23.4863 18.8688 23.193 20.005 22.5975 20.9877C21.9709 21.9158 21.1048 22.657 20.0911 23.1327C21.4668 23.5036 22.665 24.3532 23.4703 25.5286C24.2434 26.774 24.632 28.2198 24.5874 29.685C24.6129 30.8532 24.3713 32.0118 23.8812 33.0725C23.4281 33.9978 22.7647 34.8042 21.944 35.4271C21.0992 36.0432 20.1484 36.499 19.139 36.7719C18.0922 37.0614 17.0108 37.2069 15.9247 37.2042H4V11.307H15.5782ZM14.8902 21.7814C15.7394 21.8164 16.5753 21.5622 17.2613 21.0603C17.5898 20.7679 17.8453 20.4026 18.0075 19.9938C18.1696 19.5849 18.2339 19.1438 18.1952 18.7057C18.2172 18.194 18.1153 17.6846 17.8982 17.2207C17.714 16.8514 17.4277 16.5427 17.0732 16.3313C16.7141 16.0987 16.3107 15.9431 15.8884 15.8743C15.4303 15.7855 14.9641 15.7451 14.4975 15.7538H9.40219V21.8045H14.8902V21.7814ZM15.1872 32.8068C15.7007 32.8138 16.2132 32.7584 16.7135 32.6418C17.1706 32.5409 17.6041 32.3533 17.9906 32.0891C18.3692 31.8251 18.6751 31.4698 18.8799 31.0562C19.1175 30.5288 19.2266 29.9525 19.1984 29.3748C19.2499 28.8483 19.1802 28.317 18.9945 27.8216C18.8089 27.3262 18.5123 26.88 18.1275 26.5169C17.3119 25.9162 16.3124 25.6186 15.301 25.6754H9.40219V32.8068H15.1872Z" fill="black"/>
<path d="M32.2815 32.711C32.7055 33.104 33.205 33.4067 33.7496 33.6007C34.2942 33.7948 34.8725 33.876 35.4495 33.8396C36.3642 33.8627 37.2612 33.5844 38.0021 33.0476C38.6049 32.6557 39.0614 32.0756 39.3007 31.3976H43.6089C43.1499 33.3278 42.0289 35.0362 40.4409 36.2256C38.9174 37.2368 37.1171 37.7488 35.2895 37.6908C33.9851 37.7079 32.6906 37.4627 31.4829 36.9697C30.3903 36.5141 29.4105 35.8254 28.6118 34.9517C27.8161 34.0363 27.2049 32.9757 26.8116 31.8282C26.3702 30.5457 26.1542 29.1964 26.1731 27.8401C26.165 26.5066 26.3883 25.1818 26.8331 23.9246C27.4306 22.156 28.573 20.6221 30.0964 19.543C31.6198 18.464 33.4459 17.8953 35.3126 17.9185C36.6908 17.8897 38.0536 18.2122 39.2726 18.8557C40.3746 19.46 41.3252 20.3062 42.0529 21.3308C42.7974 22.4059 43.331 23.6125 43.6254 24.8866C43.9483 26.2547 44.0634 27.6637 43.967 29.0661H31.1347C31.0307 30.3837 31.4418 31.6903 32.2815 32.711ZM37.9114 22.862C37.5523 22.5028 37.1204 22.2248 36.6448 22.0466C36.1692 21.8684 35.6609 21.7943 35.1542 21.8291C34.482 21.8034 33.8146 21.9524 33.217 22.2614C32.7433 22.5222 32.3252 22.8731 31.9861 23.2943C31.6856 23.6893 31.4618 24.137 31.3261 24.6143C31.2039 25.0124 31.1275 25.4232 31.0984 25.8387H39.0466C38.9773 24.7557 38.5828 23.7188 37.9147 22.8637L37.9114 22.862Z" fill="black"/>
<path d="M40.0333 13.0361H30.0737V15.5821H40.0333V13.0361Z" fill="black"/>
</svg>
