<svg width="48" height="49" viewBox="0 0 48 49" fill="none" xmlns="http://www.w3.org/2000/svg">
<path fill-rule="evenodd" clip-rule="evenodd" d="M24 4.5C12.9588 4.5 4 13.4588 4 24.5C4 35.5412 12.9588 44.5 24 44.5C35.0195 44.5 44 35.5412 44 24.5C44 13.4588 35.0195 4.5 24 4.5ZM37.2104 13.7191C39.5965 16.6258 41.0282 20.3352 41.0716 24.3482C40.5076 24.2397 34.8677 23.09 29.1844 23.8058C29.0542 23.5239 28.9458 23.2202 28.8156 22.9165C28.4686 22.0922 28.0781 21.2462 27.6876 20.4436C33.9783 17.884 36.8416 14.1963 37.2104 13.7191ZM24 7.45011C28.3384 7.45011 32.308 9.077 35.3232 11.7451C35.0195 12.179 32.4382 15.628 26.3644 17.9056C23.5662 12.7646 20.4642 8.5564 19.987 7.90564C21.2668 7.60195 22.6117 7.45011 24 7.45011ZM16.7332 9.05532C17.1887 9.66268 20.2256 13.8926 23.0672 18.9252C15.0846 21.051 8.03472 21.0076 7.27549 21.0076C8.38176 15.7148 11.961 11.3113 16.7332 9.05532ZM6.90672 24.5217C6.90672 24.3482 6.90672 24.1746 6.90672 24.0011C7.64425 24.0228 15.9306 24.1312 24.4555 21.5716C24.9544 22.526 25.41 23.5022 25.8438 24.4783C25.6269 24.5434 25.3883 24.6085 25.1714 24.6735C16.3644 27.5152 11.679 35.2809 11.2885 35.9317C8.577 32.9165 6.90672 28.9035 6.90672 24.5217ZM24 41.5933C20.0521 41.5933 16.4078 40.2484 13.5228 37.9924C13.8265 37.3634 17.2972 30.6822 26.9284 27.32C26.9718 27.2983 26.9935 27.2983 27.0369 27.2766C29.4447 33.5022 30.4208 38.7299 30.6811 40.2267C28.6204 41.116 26.3644 41.5933 24 41.5933ZM33.5228 38.6649C33.3492 37.6236 32.4382 32.6345 30.2039 26.4957C35.5618 25.6497 40.2473 27.038 40.833 27.2332C40.0954 31.9837 37.3622 36.0835 33.5228 38.6649Z" fill="black"/>
</svg>
