<svg width="48" height="49" viewBox="0 0 48 49" fill="none" xmlns="http://www.w3.org/2000/svg">
<path d="M42 9.14706V39.8529C42 40.555 41.7211 41.2283 41.2247 41.7247C40.7283 42.2211 40.055 42.5 39.3529 42.5H8.64706C7.94502 42.5 7.27173 42.2211 6.77531 41.7247C6.27889 41.2283 6 40.555 6 39.8529V9.14706C6 8.44502 6.27889 7.77173 6.77531 7.27531C7.27173 6.77889 7.94502 6.5 8.64706 6.5H39.3529C40.055 6.5 40.7283 6.77889 41.2247 7.27531C41.7211 7.77173 42 8.44502 42 9.14706ZM16.5882 20.2647H11.2941V37.2059H16.5882V20.2647ZM17.0647 14.4412C17.0675 14.0407 16.9914 13.6436 16.8407 13.2726C16.69 12.9016 16.4677 12.5638 16.1866 12.2787C15.9054 11.9936 15.5707 11.7666 15.2018 11.6108C14.8329 11.455 14.4369 11.3734 14.0365 11.3706H13.9412C13.1268 11.3706 12.3458 11.6941 11.7699 12.2699C11.1941 12.8458 10.8706 13.6268 10.8706 14.4412C10.8706 15.2555 11.1941 16.0366 11.7699 16.6124C12.3458 17.1883 13.1268 17.5118 13.9412 17.5118C14.3417 17.5216 14.7402 17.4525 15.1139 17.3083C15.4877 17.164 15.8293 16.9476 16.1194 16.6713C16.4095 16.395 16.6423 16.0642 16.8045 15.6979C16.9667 15.3316 17.0551 14.937 17.0647 14.5365V14.4412ZM36.7059 26.9141C36.7059 21.8212 33.4659 19.8412 30.2471 19.8412C29.1932 19.7884 28.1438 20.0129 27.2037 20.4922C26.2637 20.9715 25.4657 21.689 24.8894 22.5729H24.7412V20.2647H19.7647V37.2059H25.0588V28.1953C24.9823 27.2725 25.273 26.3567 25.8678 25.6469C26.4625 24.9372 27.3133 24.4908 28.2353 24.4047H28.4365C30.12 24.4047 31.3694 25.4635 31.3694 28.1318V37.2059H36.6635L36.7059 26.9141Z" fill="black"/>
</svg>
