<svg width="100" height="100" viewBox="0 0 100 100" fill="none" xmlns="http://www.w3.org/2000/svg">
<g filter="url(#filter0_ii_332_1626)">
<circle cx="50" cy="50" r="50" fill="url(#paint0_linear_332_1626)"/>
</g>
<circle cx="50" cy="50" r="49.7549" stroke="#BE8A1B" stroke-width="0.490196"/>
<path d="M72.6457 12.3767C60.2279 6.63458 56.0362 14.0881 54.1538 18.5744C54.0263 18.8783 54.4632 19.143 54.6982 18.912C60.8234 12.8923 67.7902 13.2088 72.2736 13.6833C73.2576 13.7874 73.5439 12.792 72.6457 12.3767Z" fill="#532A03"/>
<path d="M32.7918 16.3522C39.3229 15.4686 43.4008 18.074 45.4793 20.6736C46.0441 21.38 45.2849 22.1561 44.4556 21.7953C40.2246 19.9545 36.1276 18.864 32.9131 18.2622C31.8455 18.0624 31.7155 16.4978 32.7918 16.3522Z" fill="#532A03"/>
<g filter="url(#filter1_di_332_1626)">
<circle cx="33.4558" cy="36.6421" r="13.6029" fill="white"/>
<circle cx="33.4558" cy="36.6421" r="13.4804" stroke="#ED8000" stroke-width="0.245098"/>
</g>
<circle cx="35.0447" cy="38.8458" r="8.43653" fill="url(#paint1_linear_332_1626)"/>
<circle cx="39.3491" cy="34.1972" r="1.72174" fill="white"/>
<g filter="url(#filter2_di_332_1626)">
<circle cx="67.1117" cy="36.6421" r="13.6029" fill="white"/>
<circle cx="67.1117" cy="36.6421" r="13.4804" stroke="#ED8000" stroke-width="0.245098"/>
</g>
<circle cx="68.7006" cy="38.8458" r="8.43653" fill="url(#paint2_linear_332_1626)"/>
<circle cx="73.0048" cy="34.1972" r="1.72174" fill="white"/>
<path d="M68.2749 70.0293C54.6973 63.9206 40.4896 67.7989 36.4036 70.0293C37.5066 65.6173 44.8148 65.2731 52.6518 65.5053C58.9215 65.6911 67.0558 65.9656 68.2749 70.0293Z" fill="url(#paint3_linear_332_1626)"/>
<path d="M36.4036 70.0293L36.7559 70.6747L35.2833 71.4785L35.6902 69.851L36.4036 70.0293ZM68.2749 70.0293L68.9792 69.818C69.0619 70.0938 68.9761 70.3924 68.7596 70.5822C68.5431 70.772 68.2358 70.818 67.9732 70.6998L68.2749 70.0293ZM52.6518 65.5053L52.6736 64.7703L52.6736 64.7703L52.6518 65.5053ZM36.4036 70.0293L36.0513 69.3839C38.2038 68.2089 42.8816 66.6607 48.7182 66.1694C54.5694 65.6769 61.647 66.2411 68.5766 69.3587L68.2749 70.0293L67.9732 70.6998C61.3251 67.7088 54.5101 67.1577 48.8416 67.6348C43.1585 68.1131 38.6894 69.6193 36.7559 70.6747L36.4036 70.0293ZM68.2749 70.0293L67.5706 70.2406C67.3355 69.4568 66.7578 68.8084 65.8315 68.2698C64.898 67.727 63.659 67.3262 62.2118 67.0338C59.3149 66.4487 55.7796 66.3336 52.6301 66.2403L52.6518 65.5053L52.6736 64.7703C55.7938 64.8628 59.4604 64.9778 62.5029 65.5923C64.0253 65.8998 65.4404 66.3412 66.5708 66.9985C67.7085 67.6601 68.6048 68.5699 68.9792 69.818L68.2749 70.0293ZM52.6518 65.5053L52.6301 66.2403C48.7102 66.1241 45.0022 66.1566 42.1512 66.7458C39.2632 67.3427 37.5585 68.4412 37.1169 70.2076L36.4036 70.0293L35.6902 69.851C36.3516 67.2054 38.8526 65.9259 41.8536 65.3056C44.8918 64.6778 48.7564 64.6543 52.6736 64.7703L52.6518 65.5053Z" fill="#532A03"/>
<defs>
<filter id="filter0_ii_332_1626" x="-7.35294" y="-2.45098" width="112.255" height="107.353" filterUnits="userSpaceOnUse" color-interpolation-filters="sRGB">
<feFlood flood-opacity="0" result="BackgroundImageFix"/>
<feBlend mode="normal" in="SourceGraphic" in2="BackgroundImageFix" result="shape"/>
<feColorMatrix in="SourceAlpha" type="matrix" values="0 0 0 0 0 0 0 0 0 0 0 0 0 0 0 0 0 0 127 0" result="hardAlpha"/>
<feOffset dx="4.90196" dy="4.90196"/>
<feGaussianBlur stdDeviation="4.90196"/>
<feComposite in2="hardAlpha" operator="arithmetic" k2="-1" k3="1"/>
<feColorMatrix type="matrix" values="0 0 0 0 1 0 0 0 0 0.844167 0 0 0 0 0.504167 0 0 0 1 0"/>
<feBlend mode="normal" in2="shape" result="effect1_innerShadow_332_1626"/>
<feColorMatrix in="SourceAlpha" type="matrix" values="0 0 0 0 0 0 0 0 0 0 0 0 0 0 0 0 0 0 127 0" result="hardAlpha"/>
<feOffset dx="-7.35294" dy="-2.45098"/>
<feGaussianBlur stdDeviation="3.67647"/>
<feComposite in2="hardAlpha" operator="arithmetic" k2="-1" k3="1"/>
<feColorMatrix type="matrix" values="0 0 0 0 0.875 0 0 0 0 0.3675 0 0 0 0 0 0 0 0 1 0"/>
<feBlend mode="normal" in2="effect1_innerShadow_332_1626" result="effect2_innerShadow_332_1626"/>
</filter>
<filter id="filter1_di_332_1626" x="17.4019" y="21.5686" width="32.1079" height="32.1079" filterUnits="userSpaceOnUse" color-interpolation-filters="sRGB">
<feFlood flood-opacity="0" result="BackgroundImageFix"/>
<feColorMatrix in="SourceAlpha" type="matrix" values="0 0 0 0 0 0 0 0 0 0 0 0 0 0 0 0 0 0 127 0" result="hardAlpha"/>
<feOffset dy="0.980392"/>
<feGaussianBlur stdDeviation="1.22549"/>
<feColorMatrix type="matrix" values="0 0 0 0 0.929167 0 0 0 0 0.500909 0 0 0 0 0 0 0 0 1 0"/>
<feBlend mode="normal" in2="BackgroundImageFix" result="effect1_dropShadow_332_1626"/>
<feBlend mode="normal" in="SourceGraphic" in2="effect1_dropShadow_332_1626" result="shape"/>
<feColorMatrix in="SourceAlpha" type="matrix" values="0 0 0 0 0 0 0 0 0 0 0 0 0 0 0 0 0 0 127 0" result="hardAlpha"/>
<feOffset dx="1.22549" dy="1.22549"/>
<feComposite in2="hardAlpha" operator="arithmetic" k2="-1" k3="1"/>
<feColorMatrix type="matrix" values="0 0 0 0 0 0 0 0 0 0 0 0 0 0 0 0 0 0 0.1 0"/>
<feBlend mode="normal" in2="shape" result="effect2_innerShadow_332_1626"/>
</filter>
<filter id="filter2_di_332_1626" x="51.0578" y="21.5686" width="32.1079" height="32.1079" filterUnits="userSpaceOnUse" color-interpolation-filters="sRGB">
<feFlood flood-opacity="0" result="BackgroundImageFix"/>
<feColorMatrix in="SourceAlpha" type="matrix" values="0 0 0 0 0 0 0 0 0 0 0 0 0 0 0 0 0 0 127 0" result="hardAlpha"/>
<feOffset dy="0.980392"/>
<feGaussianBlur stdDeviation="1.22549"/>
<feColorMatrix type="matrix" values="0 0 0 0 0.929167 0 0 0 0 0.500909 0 0 0 0 0 0 0 0 1 0"/>
<feBlend mode="normal" in2="BackgroundImageFix" result="effect1_dropShadow_332_1626"/>
<feBlend mode="normal" in="SourceGraphic" in2="effect1_dropShadow_332_1626" result="shape"/>
<feColorMatrix in="SourceAlpha" type="matrix" values="0 0 0 0 0 0 0 0 0 0 0 0 0 0 0 0 0 0 127 0" result="hardAlpha"/>
<feOffset dx="1.22549" dy="1.22549"/>
<feComposite in2="hardAlpha" operator="arithmetic" k2="-1" k3="1"/>
<feColorMatrix type="matrix" values="0 0 0 0 0 0 0 0 0 0 0 0 0 0 0 0 0 0 0.1 0"/>
<feBlend mode="normal" in2="shape" result="effect2_innerShadow_332_1626"/>
</filter>
<linearGradient id="paint0_linear_332_1626" x1="11.2745" y1="17.8922" x2="80.8823" y2="91.1765" gradientUnits="userSpaceOnUse">
<stop offset="0.0104167" stop-color="#FFC42B"/>
<stop offset="1" stop-color="#FF7A00"/>
</linearGradient>
<linearGradient id="paint1_linear_332_1626" x1="40.897" y1="44.5462" x2="31.6245" y2="33.1455" gradientUnits="userSpaceOnUse">
<stop stop-color="#050505"/>
<stop offset="1" stop-color="#323232"/>
</linearGradient>
<linearGradient id="paint2_linear_332_1626" x1="74.5529" y1="44.5462" x2="65.2803" y2="33.1455" gradientUnits="userSpaceOnUse">
<stop stop-color="#050505"/>
<stop offset="1" stop-color="#323232"/>
</linearGradient>
<linearGradient id="paint3_linear_332_1626" x1="52.413" y1="77.5803" x2="52.413" y2="65.4971" gradientUnits="userSpaceOnUse">
<stop stop-color="#201000"/>
<stop offset="1" stop-color="#B95B00"/>
</linearGradient>
</defs>
</svg>
