<svg width="100" height="100" viewBox="0 0 100 100" fill="none" xmlns="http://www.w3.org/2000/svg">
<g filter="url(#filter0_ii_332_1598)">
<circle cx="50" cy="50" r="50" fill="url(#paint0_linear_332_1598)"/>
</g>
<circle cx="50" cy="50" r="49.7549" stroke="#890000" stroke-width="0.490196"/>
<path d="M34.9203 18.3044C41.4514 17.4208 45.5293 20.0261 47.6077 22.6258C48.1725 23.3321 47.4134 24.1083 46.5841 23.7475C42.353 21.9067 38.256 20.8162 35.0415 20.2144C33.9739 20.0145 33.844 18.45 34.9203 18.3044Z" fill="#532A03"/>
<path d="M64.8991 18.3044C58.368 17.4208 54.2901 20.0261 52.2116 22.6258C51.6468 23.3321 52.406 24.1083 53.2353 23.7475C57.4663 21.9067 61.5634 20.8162 64.7778 20.2144C65.8454 20.0145 65.9754 18.45 64.8991 18.3044Z" fill="#532A03"/>
<g filter="url(#filter1_di_332_1598)">
<circle cx="36.9948" cy="38.3621" r="13.6029" fill="white"/>
<circle cx="36.9948" cy="38.3621" r="13.6029" fill="url(#paint1_linear_332_1598)"/>
<circle cx="36.9948" cy="38.3621" r="13.4804" stroke="#ED8000" stroke-width="0.245098"/>
</g>
<circle cx="42.9222" cy="42.3375" r="6.37253" fill="url(#paint2_linear_332_1598)"/>
<circle cx="46.1736" cy="38.826" r="1.30052" fill="white"/>
<g filter="url(#filter2_di_332_1598)">
<circle cx="13.6029" cy="13.6029" r="13.6029" transform="matrix(-1 0 0 1 79.545 24.7592)" fill="white"/>
<circle cx="13.6029" cy="13.6029" r="13.6029" transform="matrix(-1 0 0 1 79.545 24.7592)" fill="url(#paint3_linear_332_1598)"/>
<circle cx="13.6029" cy="13.6029" r="13.4804" transform="matrix(-1 0 0 1 79.545 24.7592)" stroke="#ED8000" stroke-width="0.245098"/>
</g>
<circle cx="6.37253" cy="6.37253" r="6.37253" transform="matrix(-1 0 0 1 66.3872 35.965)" fill="url(#paint4_linear_332_1598)"/>
<circle cx="1.30052" cy="1.30052" r="1.30052" transform="matrix(-1 0 0 1 58.064 37.5255)" fill="white"/>
<path d="M67.69 69.4445C55.7318 63.9317 35.0315 63.7767 31.4327 65.7895C32.4042 61.808 33.0099 57.3928 39.9123 57.6024C45.4342 57.77 66.6163 65.7773 67.69 69.4445Z" fill="#150101"/>
<path d="M31.4327 65.7895L31.7917 66.4312L30.3182 67.2553L30.7184 65.6152L31.4327 65.7895ZM67.69 69.4445L68.3957 69.2378C68.4767 69.5145 68.3886 69.8129 68.1704 70.0012C67.9521 70.1895 67.644 70.2329 67.3822 70.1122L67.69 69.4445ZM39.9123 57.6024L39.89 58.3373L39.89 58.3373L39.9123 57.6024ZM31.4327 65.7895L31.0738 65.1477C31.6301 64.8366 32.4424 64.6016 33.396 64.4202C34.367 64.2355 35.5481 64.0952 36.8837 64.0027C39.5562 63.8176 42.8887 63.8213 46.4756 64.0612C53.6333 64.54 61.9007 65.9659 67.9979 68.7767L67.69 69.4445L67.3822 70.1122C61.5211 67.4103 53.4592 66.0023 46.3775 65.5286C42.8448 65.2922 39.58 65.2901 36.9853 65.4697C35.6874 65.5596 34.5675 65.6943 33.6708 65.8649C32.7569 66.0387 32.1351 66.2391 31.7917 66.4312L31.4327 65.7895ZM67.69 69.4445L66.9844 69.6511C66.9173 69.4219 66.6269 69.0167 65.9474 68.4573C65.2998 67.9243 64.4025 67.3335 63.3088 66.7092C61.1248 65.4625 58.2367 64.1265 55.193 62.8925C52.1521 61.6597 48.975 60.5364 46.2203 59.7121C43.4404 58.8803 41.164 58.376 39.89 58.3373L39.9123 57.6024L39.9346 56.8674C41.4215 56.9125 43.8636 57.472 46.6419 58.3033C49.4455 59.1421 52.6664 60.2813 55.7455 61.5297C58.8218 62.7768 61.7756 64.1407 64.0378 65.432C65.1673 66.0767 66.1441 66.7145 66.882 67.3219C67.5879 67.903 68.1944 68.5502 68.3957 69.2378L67.69 69.4445ZM39.9123 57.6024L39.89 58.3373C36.621 58.2381 35.0049 59.2225 34.0449 60.5543C33.0153 61.9825 32.6517 63.8957 32.1471 65.9638L31.4327 65.7895L30.7184 65.6152C31.1852 63.7018 31.6102 61.4167 32.8519 59.6943C34.1632 57.8754 36.3012 56.7571 39.9346 56.8674L39.9123 57.6024Z" fill="#532A03"/>
<defs>
<filter id="filter0_ii_332_1598" x="-7.35294" y="-2.45098" width="112.255" height="107.353" filterUnits="userSpaceOnUse" color-interpolation-filters="sRGB">
<feFlood flood-opacity="0" result="BackgroundImageFix"/>
<feBlend mode="normal" in="SourceGraphic" in2="BackgroundImageFix" result="shape"/>
<feColorMatrix in="SourceAlpha" type="matrix" values="0 0 0 0 0 0 0 0 0 0 0 0 0 0 0 0 0 0 127 0" result="hardAlpha"/>
<feOffset dx="4.90196" dy="4.90196"/>
<feGaussianBlur stdDeviation="4.90196"/>
<feComposite in2="hardAlpha" operator="arithmetic" k2="-1" k3="1"/>
<feColorMatrix type="matrix" values="0 0 0 0 1 0 0 0 0 0.844167 0 0 0 0 0.504167 0 0 0 1 0"/>
<feBlend mode="normal" in2="shape" result="effect1_innerShadow_332_1598"/>
<feColorMatrix in="SourceAlpha" type="matrix" values="0 0 0 0 0 0 0 0 0 0 0 0 0 0 0 0 0 0 127 0" result="hardAlpha"/>
<feOffset dx="-7.35294" dy="-2.45098"/>
<feGaussianBlur stdDeviation="3.67647"/>
<feComposite in2="hardAlpha" operator="arithmetic" k2="-1" k3="1"/>
<feColorMatrix type="matrix" values="0 0 0 0 0.875 0 0 0 0 0.3675 0 0 0 0 0 0 0 0 1 0"/>
<feBlend mode="normal" in2="effect1_innerShadow_332_1598" result="effect2_innerShadow_332_1598"/>
</filter>
<filter id="filter1_di_332_1598" x="20.9409" y="23.2886" width="32.1079" height="32.1079" filterUnits="userSpaceOnUse" color-interpolation-filters="sRGB">
<feFlood flood-opacity="0" result="BackgroundImageFix"/>
<feColorMatrix in="SourceAlpha" type="matrix" values="0 0 0 0 0 0 0 0 0 0 0 0 0 0 0 0 0 0 127 0" result="hardAlpha"/>
<feOffset dy="0.980392"/>
<feGaussianBlur stdDeviation="1.22549"/>
<feColorMatrix type="matrix" values="0 0 0 0 0.929167 0 0 0 0 0.500909 0 0 0 0 0 0 0 0 1 0"/>
<feBlend mode="normal" in2="BackgroundImageFix" result="effect1_dropShadow_332_1598"/>
<feBlend mode="normal" in="SourceGraphic" in2="effect1_dropShadow_332_1598" result="shape"/>
<feColorMatrix in="SourceAlpha" type="matrix" values="0 0 0 0 0 0 0 0 0 0 0 0 0 0 0 0 0 0 127 0" result="hardAlpha"/>
<feOffset dx="1.22549" dy="1.22549"/>
<feComposite in2="hardAlpha" operator="arithmetic" k2="-1" k3="1"/>
<feColorMatrix type="matrix" values="0 0 0 0 0 0 0 0 0 0 0 0 0 0 0 0 0 0 0.1 0"/>
<feBlend mode="normal" in2="shape" result="effect2_innerShadow_332_1598"/>
</filter>
<filter id="filter2_di_332_1598" x="49.8881" y="23.2886" width="32.1079" height="32.1079" filterUnits="userSpaceOnUse" color-interpolation-filters="sRGB">
<feFlood flood-opacity="0" result="BackgroundImageFix"/>
<feColorMatrix in="SourceAlpha" type="matrix" values="0 0 0 0 0 0 0 0 0 0 0 0 0 0 0 0 0 0 127 0" result="hardAlpha"/>
<feOffset dy="0.980392"/>
<feGaussianBlur stdDeviation="1.22549"/>
<feColorMatrix type="matrix" values="0 0 0 0 0.929167 0 0 0 0 0.500909 0 0 0 0 0 0 0 0 1 0"/>
<feBlend mode="normal" in2="BackgroundImageFix" result="effect1_dropShadow_332_1598"/>
<feBlend mode="normal" in="SourceGraphic" in2="effect1_dropShadow_332_1598" result="shape"/>
<feColorMatrix in="SourceAlpha" type="matrix" values="0 0 0 0 0 0 0 0 0 0 0 0 0 0 0 0 0 0 127 0" result="hardAlpha"/>
<feOffset dx="1.22549" dy="1.22549"/>
<feComposite in2="hardAlpha" operator="arithmetic" k2="-1" k3="1"/>
<feColorMatrix type="matrix" values="0 0 0 0 0 0 0 0 0 0 0 0 0 0 0 0 0 0 0.1 0"/>
<feBlend mode="normal" in2="shape" result="effect2_innerShadow_332_1598"/>
</filter>
<linearGradient id="paint0_linear_332_1598" x1="11.2745" y1="17.8922" x2="80.8823" y2="91.1765" gradientUnits="userSpaceOnUse">
<stop offset="0.0104167" stop-color="#FFC42B"/>
<stop offset="1" stop-color="#FF0000"/>
</linearGradient>
<linearGradient id="paint1_linear_332_1598" x1="47.807" y1="43.2748" x2="30.9942" y2="28.2163" gradientUnits="userSpaceOnUse">
<stop stop-color="#BE3F3F"/>
<stop offset="1" stop-color="white" stop-opacity="0"/>
</linearGradient>
<linearGradient id="paint2_linear_332_1598" x1="47.3428" y1="46.6433" x2="40.3388" y2="38.0317" gradientUnits="userSpaceOnUse">
<stop stop-color="#050505"/>
<stop offset="1" stop-color="#323232"/>
</linearGradient>
<linearGradient id="paint3_linear_332_1598" x1="24.4152" y1="18.5157" x2="7.60234" y2="3.45719" gradientUnits="userSpaceOnUse">
<stop stop-color="#BE3F3F"/>
<stop offset="1" stop-color="white" stop-opacity="0"/>
</linearGradient>
<linearGradient id="paint4_linear_332_1598" x1="10.7931" y1="10.6783" x2="3.78907" y2="2.06677" gradientUnits="userSpaceOnUse">
<stop stop-color="#050505"/>
<stop offset="1" stop-color="#323232"/>
</linearGradient>
</defs>
</svg>
