<svg width="30" height="30" viewBox="0 0 30 30" fill="none" xmlns="http://www.w3.org/2000/svg">
<path d="M1.012 19.506L11.9081 19.6093C12.0385 19.6118 12.1661 19.6473 12.2791 19.7125C12.392 19.7777 12.4866 19.8705 12.5539 19.9822L18.0915 29.3668C18.1766 29.5088 18.3056 29.6192 18.4591 29.6812C18.6125 29.7433 18.782 29.7537 18.9419 29.7109C19.1018 29.6681 19.2434 29.5743 19.3452 29.4438C19.4471 29.3133 19.5037 29.1532 19.5064 28.9877L19.6097 18.0916C19.6122 17.9612 19.6477 17.8336 19.7129 17.7206C19.7781 17.6077 19.8709 17.5131 19.9826 17.4457L29.3672 11.9082C29.5092 11.8231 29.6196 11.6941 29.6817 11.5406C29.7438 11.3871 29.7542 11.2176 29.7113 11.0578C29.6685 10.8979 29.5747 10.7563 29.4442 10.6544C29.3137 10.5526 29.1536 10.496 28.9881 10.4933L18.092 10.39C17.9616 10.3875 17.834 10.3519 17.721 10.2867C17.6081 10.2215 17.5135 10.1287 17.4462 10.0171L11.9086 0.632456C11.8235 0.490479 11.6945 0.380092 11.541 0.318004C11.3876 0.255916 11.2181 0.245506 11.0582 0.28835C10.8983 0.331194 10.7567 0.42496 10.6548 0.555455C10.553 0.685951 10.4964 0.846072 10.4937 1.01159L10.3904 11.9077C10.3879 12.038 10.3524 12.1657 10.2871 12.2786C10.2219 12.3916 10.1292 12.4862 10.0175 12.5535L0.632874 18.091C0.490896 18.1762 0.38051 18.3052 0.318422 18.4587C0.256334 18.6121 0.245924 18.7816 0.288768 18.9415C0.331612 19.1014 0.425377 19.243 0.555873 19.3448C0.686368 19.4467 0.84649 19.5032 1.012 19.506Z" fill="url(#paint0_linear_353_739)" stroke="#FCD34D" stroke-width="0.390625" stroke-linecap="round" stroke-linejoin="round"/>
<defs>
<linearGradient id="paint0_linear_353_739" x1="5.5963" y1="5.59952" x2="24.4038" y2="24.3997" gradientUnits="userSpaceOnUse">
<stop stop-color="#FCD966"/>
<stop offset="0.5" stop-color="#FCD966"/>
<stop offset="1" stop-color="#FCCD34"/>
</linearGradient>
</defs>
</svg>
